G04 DipTrace 2.3.1.0*
%INBottom.gbr*%
%MOIN*%
%ADD14C,0.015*%
%ADD15C,0.008*%
%ADD16C,0.013*%
%ADD20R,0.063X0.0709*%
%ADD22R,0.075X0.075*%
%ADD23C,0.0787*%
%ADD24C,0.0866*%
%ADD25C,0.03*%
%ADD34C,0.0591*%
%ADD35C,0.04*%
%FSLAX44Y44*%
G04*
G70*
G90*
G75*
G01*
%LNBottom*%
%LPD*%
X16522Y12562D2*
D14*
Y10539D1*
X18375Y8687D1*
X19750D1*
X22750Y12187D2*
X20875D1*
X19750Y11062D1*
Y8687D1*
X20875Y12187D2*
X19500Y13562D1*
Y14687D1*
X22750Y17937D1*
X27000D1*
X22500Y15437D2*
D15*
X23875Y16812D1*
X28500D1*
X30000Y15312D1*
Y10812D1*
X32875Y7937D1*
Y6437D1*
X17625Y12562D2*
Y13187D1*
X17875Y13437D1*
X20852Y8687D2*
X20875D1*
Y10562D1*
X23852Y12187D2*
Y11335D1*
X23875Y11312D1*
X26125Y15687D2*
Y12937D1*
X25875Y12687D1*
X25000D1*
X24875Y12812D1*
D35*
X27000Y17937D3*
X22500Y15437D3*
X17875Y13437D3*
X20875Y10562D3*
X23875Y11312D3*
X26125Y15687D3*
X24875Y12812D3*
X13923Y23318D2*
D15*
X35327D1*
X13923Y23240D2*
X35327D1*
X13923Y23161D2*
X35327D1*
X13923Y23082D2*
X35327D1*
X13923Y23004D2*
X35327D1*
X13923Y22925D2*
X35327D1*
X13923Y22846D2*
X35327D1*
X13923Y22768D2*
X35327D1*
X13923Y22689D2*
X35327D1*
X13923Y22610D2*
X35327D1*
X13923Y22531D2*
X35327D1*
X13923Y22453D2*
X33138D1*
X33611D2*
X35327D1*
X13923Y22374D2*
X32912D1*
X33837D2*
X35327D1*
X13923Y22295D2*
X32777D1*
X33972D2*
X35327D1*
X13923Y22217D2*
X32676D1*
X34073D2*
X35327D1*
X13923Y22138D2*
X32597D1*
X34152D2*
X35327D1*
X13923Y22059D2*
X32532D1*
X34217D2*
X35327D1*
X13923Y21981D2*
X32478D1*
X34271D2*
X35327D1*
X13923Y21902D2*
X14368D1*
X15381D2*
X32435D1*
X34314D2*
X35327D1*
X13923Y21823D2*
X14368D1*
X15381D2*
X32400D1*
X34349D2*
X35327D1*
X13923Y21745D2*
X14368D1*
X15381D2*
X32372D1*
X34377D2*
X35327D1*
X13923Y21666D2*
X14368D1*
X15381D2*
X32351D1*
X34398D2*
X35327D1*
X13923Y21587D2*
X14368D1*
X15381D2*
X32336D1*
X34413D2*
X35327D1*
X13923Y21509D2*
X14368D1*
X15381D2*
X32328D1*
X34421D2*
X35327D1*
X13923Y21430D2*
X14368D1*
X15381D2*
X32326D1*
X34423D2*
X35327D1*
X13923Y21351D2*
X14368D1*
X15381D2*
X32328D1*
X34421D2*
X35327D1*
X13923Y21272D2*
X14368D1*
X15381D2*
X32338D1*
X34411D2*
X35327D1*
X13923Y21194D2*
X14368D1*
X15381D2*
X32355D1*
X34394D2*
X35327D1*
X13923Y21115D2*
X14368D1*
X15381D2*
X32376D1*
X34373D2*
X35327D1*
X13923Y21036D2*
X14368D1*
X15381D2*
X32406D1*
X34343D2*
X35327D1*
X13923Y20958D2*
X14368D1*
X15381D2*
X32442D1*
X34307D2*
X35327D1*
X13923Y20879D2*
X14368D1*
X15381D2*
X32487D1*
X34262D2*
X35327D1*
X13923Y20800D2*
X14368D1*
X15381D2*
X32542D1*
X34207D2*
X35327D1*
X13923Y20722D2*
X14368D1*
X15381D2*
X32610D1*
X34139D2*
X35327D1*
X13923Y20643D2*
X14368D1*
X15381D2*
X32693D1*
X34056D2*
X35327D1*
X13923Y20564D2*
X14368D1*
X15381D2*
X32798D1*
X33951D2*
X35327D1*
X13923Y20486D2*
X14368D1*
X15381D2*
X32943D1*
X33806D2*
X35327D1*
X13923Y20407D2*
X14368D1*
X15381D2*
X33215D1*
X33534D2*
X35327D1*
X13923Y20328D2*
X14368D1*
X15381D2*
X35327D1*
X13923Y20250D2*
X14368D1*
X15381D2*
X35327D1*
X13923Y20171D2*
X14368D1*
X15381D2*
X35327D1*
X13923Y20092D2*
X14368D1*
X15381D2*
X35327D1*
X13923Y20013D2*
X14368D1*
X15381D2*
X35327D1*
X13923Y19935D2*
X35327D1*
X13923Y19856D2*
X35327D1*
X13923Y19777D2*
X35327D1*
X13923Y19699D2*
X35327D1*
X13923Y19620D2*
X35327D1*
X13923Y19541D2*
X35327D1*
X13923Y19463D2*
X35327D1*
X13923Y19384D2*
X35327D1*
X13923Y19305D2*
X35327D1*
X13923Y19227D2*
X35327D1*
X13923Y19148D2*
X35327D1*
X13923Y19069D2*
X35327D1*
X13923Y18991D2*
X35327D1*
X13923Y18912D2*
X35327D1*
X13923Y18833D2*
X35327D1*
X13923Y18754D2*
X35327D1*
X13923Y18676D2*
X35327D1*
X13923Y18597D2*
X35327D1*
X13923Y18518D2*
X35327D1*
X13923Y18440D2*
X15086D1*
X15663D2*
X35327D1*
X13923Y18361D2*
X14887D1*
X15862D2*
X35327D1*
X13923Y18282D2*
X14758D1*
X15991D2*
X35327D1*
X13923Y18204D2*
X14662D1*
X16087D2*
X26810D1*
X27189D2*
X35327D1*
X13923Y18125D2*
X14585D1*
X16164D2*
X22678D1*
X27271D2*
X35327D1*
X13923Y18046D2*
X14522D1*
X16227D2*
X22571D1*
X27312D2*
X35327D1*
X13923Y17968D2*
X14471D1*
X16278D2*
X22492D1*
X27329D2*
X35327D1*
X13923Y17889D2*
X14428D1*
X16321D2*
X22413D1*
X27327D2*
X35327D1*
X13923Y17810D2*
X14395D1*
X16354D2*
X22335D1*
X27304D2*
X35327D1*
X13923Y17731D2*
X14368D1*
X16381D2*
X22256D1*
X22832D2*
X26742D1*
X27257D2*
X35327D1*
X13923Y17653D2*
X14348D1*
X16401D2*
X22177D1*
X22753D2*
X26838D1*
X27161D2*
X35327D1*
X13923Y17574D2*
X14335D1*
X16414D2*
X22098D1*
X22674D2*
X35327D1*
X13923Y17495D2*
X14327D1*
X16422D2*
X22020D1*
X22596D2*
X35327D1*
X13923Y17417D2*
X14326D1*
X16423D2*
X21941D1*
X22517D2*
X35327D1*
X13923Y17338D2*
X14330D1*
X16419D2*
X21862D1*
X22438D2*
X35327D1*
X13923Y17259D2*
X14341D1*
X16408D2*
X21783D1*
X22359D2*
X35327D1*
X13923Y17181D2*
X14357D1*
X16392D2*
X21705D1*
X22282D2*
X35327D1*
X13923Y17102D2*
X14381D1*
X16368D2*
X21626D1*
X22203D2*
X35327D1*
X13923Y17023D2*
X14411D1*
X16338D2*
X21547D1*
X22124D2*
X35327D1*
X13923Y16945D2*
X14450D1*
X16299D2*
X21468D1*
X22046D2*
X23772D1*
X28602D2*
X35327D1*
X13923Y16866D2*
X14496D1*
X16253D2*
X21391D1*
X21967D2*
X23690D1*
X28684D2*
X35327D1*
X13923Y16787D2*
X14553D1*
X16196D2*
X21312D1*
X21888D2*
X23611D1*
X28763D2*
X35327D1*
X13923Y16709D2*
X14622D1*
X16127D2*
X21233D1*
X21809D2*
X23532D1*
X28842D2*
X35327D1*
X13923Y16630D2*
X14708D1*
X16041D2*
X21155D1*
X21731D2*
X23453D1*
X23931D2*
X28443D1*
X28921D2*
X35327D1*
X13923Y16551D2*
X14820D1*
X15929D2*
X21076D1*
X21652D2*
X23375D1*
X23852D2*
X28522D1*
X28999D2*
X35327D1*
X13923Y16472D2*
X14975D1*
X15774D2*
X20997D1*
X21573D2*
X23296D1*
X23773D2*
X28601D1*
X29078D2*
X35327D1*
X13923Y16394D2*
X20918D1*
X21494D2*
X23217D1*
X23694D2*
X28680D1*
X29157D2*
X35327D1*
X13923Y16315D2*
X20840D1*
X21416D2*
X22123D1*
X22519D2*
X23138D1*
X23616D2*
X28758D1*
X29236D2*
X35327D1*
X13923Y16236D2*
X20761D1*
X21337D2*
X22067D1*
X22576D2*
X23061D1*
X23538D2*
X28836D1*
X29313D2*
X35327D1*
X13923Y16158D2*
X20682D1*
X21258D2*
X22043D1*
X22599D2*
X22982D1*
X23459D2*
X28915D1*
X29392D2*
X35327D1*
X13923Y16079D2*
X20603D1*
X21179D2*
X22043D1*
X22599D2*
X22903D1*
X23381D2*
X28993D1*
X29471D2*
X35327D1*
X13923Y16000D2*
X20525D1*
X21101D2*
X22067D1*
X22576D2*
X22825D1*
X23302D2*
X26038D1*
X26211D2*
X29072D1*
X29549D2*
X35327D1*
X13923Y15922D2*
X20446D1*
X21022D2*
X22125D1*
X22518D2*
X22746D1*
X23223D2*
X25895D1*
X26354D2*
X29151D1*
X29628D2*
X35327D1*
X13923Y15843D2*
X20367D1*
X20943D2*
X22667D1*
X23144D2*
X25833D1*
X26416D2*
X29230D1*
X29707D2*
X31701D1*
X32048D2*
X33701D1*
X34048D2*
X35327D1*
X13923Y15764D2*
X20288D1*
X20864D2*
X22588D1*
X23066D2*
X25803D1*
X26446D2*
X29308D1*
X29786D2*
X31543D1*
X32206D2*
X33543D1*
X34206D2*
X35327D1*
X13923Y15686D2*
X20210D1*
X20786D2*
X22285D1*
X22987D2*
X25793D1*
X26456D2*
X29387D1*
X29864D2*
X31455D1*
X32294D2*
X33455D1*
X34294D2*
X35327D1*
X13923Y15607D2*
X20131D1*
X20708D2*
X22217D1*
X22908D2*
X25803D1*
X26446D2*
X29466D1*
X29943D2*
X31395D1*
X32354D2*
X33395D1*
X34354D2*
X35327D1*
X13923Y15528D2*
X20052D1*
X20629D2*
X22182D1*
X22829D2*
X25835D1*
X26414D2*
X29545D1*
X30022D2*
X31355D1*
X32394D2*
X33355D1*
X34394D2*
X35327D1*
X13923Y15450D2*
X19973D1*
X20551D2*
X22168D1*
X22831D2*
X25897D1*
X26352D2*
X29623D1*
X30101D2*
X31327D1*
X32422D2*
X33327D1*
X34422D2*
X35327D1*
X13923Y15371D2*
X19895D1*
X20472D2*
X22176D1*
X22823D2*
X25953D1*
X26296D2*
X29702D1*
X30159D2*
X31313D1*
X32436D2*
X33313D1*
X34436D2*
X35327D1*
X13923Y15292D2*
X19817D1*
X20393D2*
X22202D1*
X22797D2*
X25953D1*
X26296D2*
X29781D1*
X30171D2*
X31311D1*
X32438D2*
X33311D1*
X34438D2*
X35327D1*
X13923Y15213D2*
X19738D1*
X20314D2*
X22258D1*
X22741D2*
X25953D1*
X26296D2*
X29828D1*
X30171D2*
X31320D1*
X32429D2*
X33320D1*
X34429D2*
X35327D1*
X13923Y15135D2*
X19660D1*
X20236D2*
X22377D1*
X22622D2*
X25953D1*
X26296D2*
X29828D1*
X30171D2*
X31340D1*
X32409D2*
X33340D1*
X34409D2*
X35327D1*
X13923Y15056D2*
X19581D1*
X20157D2*
X25953D1*
X26296D2*
X29828D1*
X30171D2*
X31372D1*
X32377D2*
X33372D1*
X34377D2*
X35327D1*
X13923Y14977D2*
X19502D1*
X20078D2*
X25953D1*
X26296D2*
X29828D1*
X30171D2*
X31422D1*
X32327D2*
X33422D1*
X34327D2*
X35327D1*
X13923Y14899D2*
X19423D1*
X19999D2*
X25953D1*
X26296D2*
X29828D1*
X30171D2*
X31495D1*
X32254D2*
X33495D1*
X34254D2*
X35327D1*
X13923Y14820D2*
X19345D1*
X19921D2*
X25953D1*
X26296D2*
X29828D1*
X30171D2*
X31607D1*
X32142D2*
X32772D1*
X32977D2*
X33607D1*
X34142D2*
X35327D1*
X13923Y14741D2*
X19301D1*
X19842D2*
X25953D1*
X26296D2*
X29828D1*
X30171D2*
X32578D1*
X33171D2*
X35327D1*
X13923Y14663D2*
X19293D1*
X19763D2*
X25953D1*
X26296D2*
X29828D1*
X30171D2*
X32487D1*
X33262D2*
X35327D1*
X13923Y14584D2*
X19293D1*
X19706D2*
X25953D1*
X26296D2*
X29828D1*
X30171D2*
X32427D1*
X33322D2*
X35327D1*
X13923Y14505D2*
X19293D1*
X19706D2*
X25953D1*
X26296D2*
X29828D1*
X30171D2*
X32387D1*
X33362D2*
X35327D1*
X13923Y14427D2*
X19293D1*
X19706D2*
X25953D1*
X26296D2*
X29828D1*
X30171D2*
X32362D1*
X33387D2*
X35327D1*
X13923Y14348D2*
X19293D1*
X19706D2*
X25953D1*
X26296D2*
X29828D1*
X30171D2*
X32351D1*
X33398D2*
X35327D1*
X13923Y14269D2*
X19293D1*
X19706D2*
X25953D1*
X26296D2*
X29828D1*
X30171D2*
X32352D1*
X33397D2*
X35327D1*
X13923Y14191D2*
X19293D1*
X19706D2*
X25953D1*
X26296D2*
X29828D1*
X30171D2*
X32365D1*
X33384D2*
X35327D1*
X13923Y14112D2*
X19293D1*
X19706D2*
X25953D1*
X26296D2*
X29828D1*
X30171D2*
X32390D1*
X33359D2*
X35327D1*
X13923Y14033D2*
X19293D1*
X19706D2*
X25953D1*
X26296D2*
X29828D1*
X30171D2*
X32431D1*
X33318D2*
X35327D1*
X13923Y13954D2*
X19293D1*
X19706D2*
X25953D1*
X26296D2*
X29828D1*
X30171D2*
X32493D1*
X33256D2*
X35327D1*
X13923Y13876D2*
X19293D1*
X19706D2*
X25953D1*
X26296D2*
X29828D1*
X30171D2*
X32590D1*
X33159D2*
X35327D1*
X13923Y13797D2*
X19293D1*
X19706D2*
X25953D1*
X26296D2*
X29828D1*
X30171D2*
X31595D1*
X32154D2*
X32822D1*
X32927D2*
X33595D1*
X34154D2*
X35327D1*
X13923Y13718D2*
X17708D1*
X18041D2*
X19293D1*
X19706D2*
X25953D1*
X26296D2*
X29828D1*
X30171D2*
X31487D1*
X32262D2*
X33487D1*
X34262D2*
X35327D1*
X13923Y13640D2*
X17615D1*
X18134D2*
X19293D1*
X19709D2*
X25953D1*
X26296D2*
X29828D1*
X30171D2*
X31417D1*
X32332D2*
X33417D1*
X34332D2*
X35327D1*
X13923Y13561D2*
X17568D1*
X18181D2*
X19293D1*
X19788D2*
X25953D1*
X26296D2*
X29828D1*
X30171D2*
X31370D1*
X32379D2*
X33370D1*
X34379D2*
X35327D1*
X13923Y13482D2*
X17547D1*
X18202D2*
X19310D1*
X19867D2*
X25953D1*
X26296D2*
X29828D1*
X30171D2*
X31337D1*
X32412D2*
X33337D1*
X34412D2*
X35327D1*
X13923Y13404D2*
X17545D1*
X18204D2*
X19370D1*
X19946D2*
X25953D1*
X26296D2*
X29828D1*
X30171D2*
X31318D1*
X32431D2*
X33318D1*
X34431D2*
X35327D1*
X13923Y13325D2*
X17523D1*
X18186D2*
X19448D1*
X20024D2*
X25953D1*
X26296D2*
X29828D1*
X30171D2*
X31311D1*
X32438D2*
X33311D1*
X34438D2*
X35327D1*
X13923Y13246D2*
X17465D1*
X18143D2*
X19527D1*
X20103D2*
X25953D1*
X26296D2*
X29828D1*
X30171D2*
X31315D1*
X32434D2*
X33315D1*
X34434D2*
X35327D1*
X13923Y13168D2*
X17453D1*
X18061D2*
X19606D1*
X20182D2*
X25953D1*
X26296D2*
X29828D1*
X30171D2*
X31330D1*
X32419D2*
X33330D1*
X34419D2*
X35327D1*
X13923Y13089D2*
X17453D1*
X17796D2*
X19685D1*
X20261D2*
X24700D1*
X25049D2*
X25953D1*
X26296D2*
X29828D1*
X30171D2*
X31357D1*
X32392D2*
X33357D1*
X34392D2*
X35327D1*
X13923Y13010D2*
X16076D1*
X16968D2*
X17178D1*
X18071D2*
X19763D1*
X20339D2*
X24611D1*
X25138D2*
X25953D1*
X26296D2*
X29828D1*
X30171D2*
X31400D1*
X32349D2*
X33400D1*
X34349D2*
X35327D1*
X13923Y12932D2*
X16076D1*
X16968D2*
X17178D1*
X18071D2*
X19842D1*
X20418D2*
X24566D1*
X25183D2*
X25881D1*
X26296D2*
X29828D1*
X30171D2*
X31461D1*
X32288D2*
X33461D1*
X34288D2*
X35327D1*
X13923Y12853D2*
X16076D1*
X16968D2*
X17178D1*
X18071D2*
X19921D1*
X20497D2*
X24546D1*
X25203D2*
X25802D1*
X26272D2*
X29828D1*
X30171D2*
X31552D1*
X32197D2*
X33552D1*
X34197D2*
X35327D1*
X13923Y12774D2*
X16076D1*
X16968D2*
X17178D1*
X18071D2*
X20000D1*
X20576D2*
X24546D1*
X26201D2*
X29828D1*
X30171D2*
X31725D1*
X32024D2*
X33725D1*
X34024D2*
X35327D1*
X13923Y12695D2*
X16076D1*
X16968D2*
X17178D1*
X18071D2*
X20078D1*
X20654D2*
X24565D1*
X26122D2*
X29828D1*
X30171D2*
X35327D1*
X13923Y12617D2*
X16076D1*
X16968D2*
X17178D1*
X18071D2*
X20157D1*
X20733D2*
X22303D1*
X23196D2*
X23406D1*
X24298D2*
X24610D1*
X26043D2*
X29828D1*
X30171D2*
X35327D1*
X13923Y12538D2*
X16076D1*
X16968D2*
X17178D1*
X18071D2*
X20236D1*
X20812D2*
X22303D1*
X23196D2*
X23406D1*
X24298D2*
X24695D1*
X25949D2*
X29828D1*
X30171D2*
X35327D1*
X13923Y12459D2*
X16076D1*
X16968D2*
X17178D1*
X18071D2*
X20313D1*
X20891D2*
X22303D1*
X23196D2*
X23406D1*
X24298D2*
X29828D1*
X30171D2*
X35327D1*
X13923Y12381D2*
X16076D1*
X16968D2*
X17178D1*
X18071D2*
X20392D1*
X23196D2*
X23406D1*
X24298D2*
X29828D1*
X30171D2*
X35327D1*
X13923Y12302D2*
X16076D1*
X16968D2*
X17178D1*
X18071D2*
X20471D1*
X23196D2*
X23406D1*
X24298D2*
X29828D1*
X30171D2*
X35327D1*
X13923Y12223D2*
X16076D1*
X16968D2*
X17178D1*
X18071D2*
X20550D1*
X23196D2*
X23406D1*
X24298D2*
X26001D1*
X26382D2*
X29828D1*
X30171D2*
X35327D1*
X13923Y12145D2*
X16076D1*
X16968D2*
X17178D1*
X18071D2*
X20545D1*
X23196D2*
X23406D1*
X24298D2*
X25940D1*
X26442D2*
X29828D1*
X30171D2*
X35327D1*
X13923Y12066D2*
X16316D1*
X16728D2*
X20466D1*
X23196D2*
X23406D1*
X24298D2*
X25913D1*
X26468D2*
X29828D1*
X30171D2*
X35327D1*
X13923Y11987D2*
X16316D1*
X16728D2*
X20387D1*
X20963D2*
X22303D1*
X23196D2*
X23406D1*
X24298D2*
X25912D1*
X26471D2*
X29828D1*
X30171D2*
X35327D1*
X13923Y11909D2*
X16316D1*
X16728D2*
X20308D1*
X20884D2*
X22303D1*
X23196D2*
X23406D1*
X24298D2*
X25935D1*
X26448D2*
X29828D1*
X30171D2*
X35327D1*
X13923Y11830D2*
X16316D1*
X16728D2*
X20230D1*
X20806D2*
X22303D1*
X23196D2*
X23406D1*
X24298D2*
X25987D1*
X26394D2*
X29828D1*
X30171D2*
X35327D1*
X13923Y11751D2*
X16316D1*
X16728D2*
X20151D1*
X20727D2*
X22303D1*
X23196D2*
X23406D1*
X24298D2*
X26137D1*
X26246D2*
X29828D1*
X30171D2*
X35327D1*
X13923Y11673D2*
X16316D1*
X16728D2*
X20072D1*
X20648D2*
X23681D1*
X24023D2*
X29828D1*
X30171D2*
X35327D1*
X13923Y11594D2*
X16316D1*
X16728D2*
X19993D1*
X20569D2*
X23681D1*
X24041D2*
X29828D1*
X30171D2*
X35327D1*
X13923Y11515D2*
X16316D1*
X16728D2*
X19915D1*
X20491D2*
X23616D1*
X24133D2*
X29828D1*
X30171D2*
X35327D1*
X13923Y11436D2*
X16316D1*
X16728D2*
X19836D1*
X20412D2*
X23568D1*
X24181D2*
X29828D1*
X30171D2*
X33575D1*
X34174D2*
X35327D1*
X13923Y11358D2*
X16316D1*
X16728D2*
X19757D1*
X20333D2*
X23547D1*
X24202D2*
X29828D1*
X30171D2*
X33381D1*
X34368D2*
X35327D1*
X13923Y11279D2*
X16316D1*
X16728D2*
X19678D1*
X20254D2*
X23545D1*
X24204D2*
X29828D1*
X30171D2*
X33255D1*
X34494D2*
X35327D1*
X13923Y11200D2*
X16316D1*
X16728D2*
X19600D1*
X20176D2*
X23563D1*
X24186D2*
X29828D1*
X30171D2*
X33158D1*
X34591D2*
X35327D1*
X13923Y11122D2*
X16316D1*
X16728D2*
X19552D1*
X20097D2*
X23606D1*
X24143D2*
X29828D1*
X30171D2*
X33082D1*
X34667D2*
X35327D1*
X13923Y11043D2*
X16316D1*
X16728D2*
X19543D1*
X20018D2*
X23687D1*
X24062D2*
X29828D1*
X30171D2*
X33020D1*
X34729D2*
X35327D1*
X13923Y10964D2*
X16316D1*
X16728D2*
X19543D1*
X19956D2*
X29828D1*
X30171D2*
X32968D1*
X34781D2*
X35327D1*
X13923Y10886D2*
X16316D1*
X16728D2*
X19543D1*
X19956D2*
X29828D1*
X30171D2*
X32927D1*
X34822D2*
X35327D1*
X13923Y10807D2*
X16316D1*
X16728D2*
X19543D1*
X19956D2*
X20633D1*
X21071D2*
X29828D1*
X30243D2*
X32893D1*
X34856D2*
X35327D1*
X13923Y10728D2*
X16316D1*
X16728D2*
X19543D1*
X19956D2*
X20567D1*
X21137D2*
X29852D1*
X30322D2*
X32867D1*
X34882D2*
X35327D1*
X13923Y10650D2*
X16316D1*
X16728D2*
X19543D1*
X19956D2*
X20533D1*
X21171D2*
X29923D1*
X30401D2*
X32847D1*
X34902D2*
X35327D1*
X13923Y10571D2*
X16316D1*
X16778D2*
X19543D1*
X19956D2*
X20521D1*
X21183D2*
X30002D1*
X30479D2*
X32833D1*
X34916D2*
X35327D1*
X13923Y10492D2*
X16322D1*
X16857D2*
X19543D1*
X19956D2*
X20528D1*
X21176D2*
X30081D1*
X30558D2*
X32827D1*
X34922D2*
X35327D1*
X13923Y10414D2*
X16361D1*
X16936D2*
X19543D1*
X19956D2*
X20557D1*
X21147D2*
X30160D1*
X30637D2*
X32826D1*
X34923D2*
X35327D1*
X13923Y10335D2*
X16438D1*
X17014D2*
X19543D1*
X19956D2*
X20615D1*
X21089D2*
X30238D1*
X30716D2*
X32831D1*
X34918D2*
X35327D1*
X13923Y10256D2*
X16517D1*
X17093D2*
X19543D1*
X19956D2*
X20681D1*
X21023D2*
X30317D1*
X30794D2*
X32841D1*
X34908D2*
X35327D1*
X13923Y10177D2*
X16596D1*
X17172D2*
X19543D1*
X19956D2*
X20681D1*
X21023D2*
X30396D1*
X30873D2*
X32858D1*
X34891D2*
X35327D1*
X13923Y10099D2*
X16675D1*
X17251D2*
X19543D1*
X19956D2*
X20681D1*
X21023D2*
X30475D1*
X30952D2*
X32882D1*
X34867D2*
X35327D1*
X13923Y10020D2*
X16753D1*
X17329D2*
X19543D1*
X19956D2*
X20681D1*
X21023D2*
X30553D1*
X31031D2*
X32912D1*
X34837D2*
X35327D1*
X13923Y9941D2*
X16832D1*
X17408D2*
X19543D1*
X19956D2*
X20681D1*
X21023D2*
X30631D1*
X31108D2*
X32951D1*
X34798D2*
X35327D1*
X13923Y9863D2*
X16911D1*
X17487D2*
X19543D1*
X19956D2*
X20681D1*
X21023D2*
X30710D1*
X31187D2*
X32998D1*
X34751D2*
X35327D1*
X13923Y9784D2*
X16990D1*
X17566D2*
X19543D1*
X19956D2*
X20681D1*
X21023D2*
X30788D1*
X31266D2*
X33056D1*
X34693D2*
X35327D1*
X13923Y9705D2*
X17068D1*
X17644D2*
X19543D1*
X19956D2*
X20681D1*
X21023D2*
X30867D1*
X31344D2*
X33126D1*
X34623D2*
X35327D1*
X13923Y9627D2*
X17147D1*
X17723D2*
X19543D1*
X19956D2*
X20681D1*
X21023D2*
X30946D1*
X31423D2*
X33212D1*
X34537D2*
X35327D1*
X13923Y9548D2*
X17226D1*
X17802D2*
X19543D1*
X19956D2*
X20681D1*
X21023D2*
X31025D1*
X31502D2*
X33325D1*
X34424D2*
X35327D1*
X13923Y9469D2*
X17305D1*
X17881D2*
X19543D1*
X19956D2*
X20681D1*
X21023D2*
X31103D1*
X31581D2*
X33482D1*
X34267D2*
X35327D1*
X13923Y9391D2*
X17383D1*
X17959D2*
X19543D1*
X19956D2*
X20681D1*
X21023D2*
X31182D1*
X31659D2*
X35327D1*
X13923Y9312D2*
X17461D1*
X18038D2*
X19543D1*
X19956D2*
X20681D1*
X21023D2*
X31261D1*
X31738D2*
X35327D1*
X13923Y9233D2*
X17540D1*
X18117D2*
X19543D1*
X19956D2*
X20681D1*
X21023D2*
X31340D1*
X31817D2*
X35327D1*
X13923Y9155D2*
X17618D1*
X18196D2*
X19303D1*
X20196D2*
X20406D1*
X21298D2*
X31418D1*
X31896D2*
X35327D1*
X13923Y9076D2*
X17697D1*
X18274D2*
X19303D1*
X20196D2*
X20406D1*
X21298D2*
X31497D1*
X31974D2*
X35327D1*
X13923Y8997D2*
X17776D1*
X18352D2*
X19303D1*
X20196D2*
X20406D1*
X21298D2*
X31576D1*
X32053D2*
X35327D1*
X13923Y8918D2*
X17855D1*
X18431D2*
X19303D1*
X20196D2*
X20406D1*
X21298D2*
X31655D1*
X32132D2*
X35327D1*
X13923Y8840D2*
X17933D1*
X20196D2*
X20406D1*
X21298D2*
X31733D1*
X32211D2*
X35327D1*
X13923Y8761D2*
X18012D1*
X20196D2*
X20406D1*
X21298D2*
X31812D1*
X32289D2*
X35327D1*
X13923Y8682D2*
X18091D1*
X20196D2*
X20406D1*
X21298D2*
X31891D1*
X32368D2*
X35327D1*
X13923Y8604D2*
X18170D1*
X20196D2*
X20406D1*
X21298D2*
X31970D1*
X32447D2*
X35327D1*
X13923Y8525D2*
X18252D1*
X20196D2*
X20406D1*
X21298D2*
X32048D1*
X32526D2*
X35327D1*
X13923Y8446D2*
X19303D1*
X20196D2*
X20406D1*
X21298D2*
X32127D1*
X32604D2*
X35327D1*
X13923Y8368D2*
X19303D1*
X20196D2*
X20406D1*
X21298D2*
X32205D1*
X32682D2*
X35327D1*
X13923Y8289D2*
X19303D1*
X20196D2*
X20406D1*
X21298D2*
X32283D1*
X32761D2*
X35327D1*
X13923Y8210D2*
X19303D1*
X20196D2*
X20406D1*
X21298D2*
X32362D1*
X32839D2*
X35327D1*
X13923Y8132D2*
X32441D1*
X32918D2*
X35327D1*
X13923Y8053D2*
X32520D1*
X32997D2*
X35327D1*
X13923Y7974D2*
X32598D1*
X33042D2*
X35327D1*
X13923Y7896D2*
X32677D1*
X33046D2*
X35327D1*
X13923Y7817D2*
X32703D1*
X33046D2*
X35327D1*
X13923Y7738D2*
X32703D1*
X33046D2*
X35327D1*
X13923Y7659D2*
X32703D1*
X33046D2*
X35327D1*
X13923Y7581D2*
X32703D1*
X33046D2*
X35327D1*
X13923Y7502D2*
X32703D1*
X33046D2*
X35327D1*
X13923Y7423D2*
X32703D1*
X33046D2*
X35327D1*
X13923Y7345D2*
X32703D1*
X33046D2*
X35327D1*
X13923Y7266D2*
X32703D1*
X33046D2*
X35327D1*
X13923Y7187D2*
X32703D1*
X33046D2*
X35327D1*
X13923Y7109D2*
X32703D1*
X33046D2*
X35327D1*
X13923Y7030D2*
X32703D1*
X33046D2*
X35327D1*
X13923Y6951D2*
X32703D1*
X33046D2*
X35327D1*
X13923Y6873D2*
X14368D1*
X34381D2*
X35327D1*
X13923Y6794D2*
X14368D1*
X34381D2*
X35327D1*
X13923Y6715D2*
X14368D1*
X34381D2*
X35327D1*
X13923Y6637D2*
X14368D1*
X34381D2*
X35327D1*
X13923Y6558D2*
X14368D1*
X34381D2*
X35327D1*
X13923Y6479D2*
X14368D1*
X34381D2*
X35327D1*
X13923Y6400D2*
X14368D1*
X34381D2*
X35327D1*
X13923Y6322D2*
X14368D1*
X34381D2*
X35327D1*
X13923Y6243D2*
X14368D1*
X34381D2*
X35327D1*
X13923Y6164D2*
X14368D1*
X34381D2*
X35327D1*
X13923Y6086D2*
X14368D1*
X34381D2*
X35327D1*
X13923Y6007D2*
X14368D1*
X34381D2*
X35327D1*
X13923Y5928D2*
X35327D1*
X13923Y5850D2*
X35327D1*
X13923Y5771D2*
X35327D1*
X13923Y5692D2*
X35327D1*
X13923Y5614D2*
X35327D1*
X13923Y5535D2*
X35327D1*
X13923Y5456D2*
X35327D1*
X13923Y5378D2*
X35327D1*
X13923Y5299D2*
X35327D1*
X13923Y5220D2*
X35327D1*
X13923Y5141D2*
X35327D1*
X13923Y5063D2*
X35327D1*
X13923Y4984D2*
X35327D1*
X13923Y4905D2*
X35327D1*
X13923Y4827D2*
X35327D1*
X13923Y4748D2*
X35327D1*
X13923Y4669D2*
X35327D1*
X13923Y4591D2*
X35327D1*
X13923Y4512D2*
X35327D1*
X22351Y12665D2*
X23188D1*
Y11709D1*
X22311D1*
X22310Y11989D1*
X20956D1*
X19948Y10980D1*
Y9163D1*
X20031Y9165D1*
X20188D1*
Y8209D1*
X19311D1*
X19310Y8489D1*
X18375D1*
X18335Y8493D1*
X18297Y8505D1*
X18262Y8524D1*
X18234Y8547D1*
X16382Y10399D1*
X16357Y10430D1*
X16338Y10466D1*
X16327Y10504D1*
X16324Y10539D1*
Y12086D1*
X16200Y12084D1*
X16084D1*
Y13040D1*
X16960D1*
Y12084D1*
X16719D1*
X16720Y12002D1*
Y10621D1*
X18457Y8884D1*
X19015Y8885D1*
X19311D1*
Y9165D1*
X19553D1*
X19551Y9247D1*
Y11062D1*
X19555Y11102D1*
X19567Y11140D1*
X19587Y11175D1*
X19609Y11202D1*
X20593Y12188D1*
X19359Y13422D1*
X19334Y13453D1*
X19316Y13488D1*
X19305Y13527D1*
X19301Y13562D1*
Y14687D1*
X19305Y14727D1*
X19317Y14765D1*
X19337Y14800D1*
X19359Y14827D1*
X22609Y18077D1*
X22640Y18102D1*
X22676Y18121D1*
X22714Y18132D1*
X22750Y18135D1*
X26743D1*
X26779Y18173D1*
X26810Y18199D1*
X26843Y18220D1*
X26879Y18237D1*
X26917Y18250D1*
X26957Y18257D1*
X26996Y18260D1*
X27036Y18258D1*
X27076Y18251D1*
X27114Y18239D1*
X27150Y18223D1*
X27184Y18202D1*
X27216Y18177D1*
X27244Y18149D1*
X27268Y18117D1*
X27288Y18082D1*
X27304Y18046D1*
X27315Y18007D1*
X27323Y17937D1*
X27320Y17897D1*
X27313Y17858D1*
X27301Y17820D1*
X27284Y17783D1*
X27263Y17750D1*
X27238Y17718D1*
X27209Y17691D1*
X27177Y17667D1*
X27142Y17647D1*
X27105Y17632D1*
X27067Y17621D1*
X27027Y17615D1*
X26987Y17614D1*
X26947Y17618D1*
X26908Y17627D1*
X26871Y17641D1*
X26835Y17659D1*
X26802Y17681D1*
X26772Y17707D1*
X26745Y17738D1*
X25000Y17739D1*
X22831D1*
X21702Y16609D1*
X19698Y14605D1*
Y13643D1*
X20828Y12514D1*
X20958Y12384D1*
X21435Y12385D1*
X22311D1*
Y12665D1*
X22351D1*
X23454D2*
X24290D1*
Y11709D1*
X24014D1*
X24015Y11627D1*
Y11603D1*
X24059Y11577D1*
X24091Y11552D1*
X24119Y11524D1*
X24143Y11492D1*
X24163Y11457D1*
X24179Y11421D1*
X24190Y11382D1*
X24198Y11312D1*
X24195Y11272D1*
X24188Y11233D1*
X24176Y11195D1*
X24159Y11158D1*
X24138Y11125D1*
X24113Y11093D1*
X24084Y11066D1*
X24052Y11042D1*
X24017Y11022D1*
X23980Y11007D1*
X23942Y10996D1*
X23902Y10990D1*
X23862Y10989D1*
X23822Y10993D1*
X23783Y11002D1*
X23746Y11016D1*
X23710Y11034D1*
X23677Y11056D1*
X23647Y11082D1*
X23620Y11112D1*
X23598Y11145D1*
X23579Y11181D1*
X23565Y11218D1*
X23556Y11257D1*
X23552Y11297D1*
Y11337D1*
X23558Y11376D1*
X23568Y11415D1*
X23583Y11452D1*
X23603Y11487D1*
X23626Y11519D1*
X23654Y11548D1*
X23690Y11577D1*
X23689Y11708D1*
X23414Y11709D1*
Y12665D1*
X23454D1*
X17226Y13040D2*
X17463D1*
X17461Y13122D1*
Y13187D1*
X17466Y13227D1*
X17481Y13264D1*
X17509Y13302D1*
X17561Y13355D1*
X17552Y13422D1*
Y13462D1*
X17558Y13501D1*
X17568Y13540D1*
X17583Y13577D1*
X17603Y13612D1*
X17626Y13644D1*
X17654Y13673D1*
X17685Y13699D1*
X17718Y13720D1*
X17754Y13737D1*
X17792Y13750D1*
X17832Y13757D1*
X17871Y13760D1*
X17911Y13758D1*
X17951Y13751D1*
X17989Y13739D1*
X18025Y13723D1*
X18059Y13702D1*
X18091Y13677D1*
X18119Y13649D1*
X18143Y13617D1*
X18163Y13582D1*
X18179Y13546D1*
X18190Y13507D1*
X18198Y13437D1*
X18195Y13397D1*
X18188Y13358D1*
X18176Y13320D1*
X18159Y13283D1*
X18138Y13250D1*
X18113Y13218D1*
X18084Y13191D1*
X18052Y13167D1*
X18017Y13147D1*
X17980Y13132D1*
X17942Y13121D1*
X17902Y13115D1*
X17862Y13114D1*
X17822Y13118D1*
X17792Y13124D1*
X17787Y13119D1*
X17788Y13038D1*
X18026Y13040D1*
X18063D1*
Y12084D1*
X17186D1*
Y13040D1*
X17226D1*
X20454Y9165D2*
X20690D1*
X20689Y9247D1*
X20688Y10284D1*
X20654Y10306D1*
X20624Y10332D1*
X20598Y10362D1*
X20575Y10395D1*
X20557Y10431D1*
X20543Y10468D1*
X20533Y10507D1*
X20529Y10547D1*
X20530Y10587D1*
X20535Y10626D1*
X20545Y10665D1*
X20560Y10702D1*
X20580Y10737D1*
X20604Y10769D1*
X20631Y10798D1*
X20662Y10824D1*
X20696Y10845D1*
X20732Y10862D1*
X20770Y10875D1*
X20809Y10882D1*
X20849Y10885D1*
X20889Y10883D1*
X20928Y10876D1*
X20966Y10864D1*
X21003Y10848D1*
X21037Y10827D1*
X21068Y10802D1*
X21096Y10774D1*
X21120Y10742D1*
X21141Y10707D1*
X21156Y10671D1*
X21167Y10632D1*
X21175Y10562D1*
X21173Y10522D1*
X21165Y10483D1*
X21153Y10445D1*
X21136Y10408D1*
X21115Y10375D1*
X21090Y10343D1*
X21061Y10316D1*
X21015Y10284D1*
Y9163D1*
X21254Y9165D1*
X21290D1*
Y8209D1*
X20414D1*
Y9165D1*
X20454D1*
X34415Y21397D2*
X34409Y21317D1*
X34397Y21238D1*
X34378Y21160D1*
X34354Y21084D1*
X34324Y21010D1*
X34289Y20938D1*
X34248Y20870D1*
X34202Y20804D1*
X34151Y20743D1*
X34095Y20685D1*
X34035Y20632D1*
X33971Y20584D1*
X33904Y20540D1*
X33834Y20502D1*
X33761Y20470D1*
X33685Y20443D1*
X33608Y20422D1*
X33530Y20407D1*
X33450Y20398D1*
X33370Y20396D1*
X33290Y20399D1*
X33211Y20409D1*
X33132Y20424D1*
X33055Y20446D1*
X32980Y20473D1*
X32907Y20506D1*
X32837Y20545D1*
X32771Y20589D1*
X32707Y20638D1*
X32648Y20691D1*
X32593Y20749D1*
X32542Y20811D1*
X32497Y20877D1*
X32456Y20946D1*
X32421Y21018D1*
X32392Y21092D1*
X32368Y21169D1*
X32351Y21247D1*
X32339Y21326D1*
X32334Y21406D1*
Y21486D1*
X32341Y21565D1*
X32354Y21644D1*
X32373Y21722D1*
X32398Y21798D1*
X32428Y21872D1*
X32465Y21943D1*
X32506Y22012D1*
X32553Y22077D1*
X32604Y22138D1*
X32660Y22195D1*
X32721Y22247D1*
X32785Y22295D1*
X32852Y22338D1*
X32923Y22375D1*
X32996Y22407D1*
X33072Y22433D1*
X33149Y22454D1*
X33228Y22468D1*
X33307Y22476D1*
X33387Y22478D1*
X33467Y22474D1*
X33547Y22464D1*
X33625Y22448D1*
X33702Y22426D1*
X33777Y22398D1*
X33849Y22364D1*
X33919Y22325D1*
X33985Y22280D1*
X34048Y22231D1*
X34107Y22177D1*
X34162Y22118D1*
X34212Y22056D1*
X34257Y21990D1*
X34297Y21920D1*
X34331Y21848D1*
X34360Y21774D1*
X34383Y21697D1*
X34400Y21619D1*
X34411Y21540D1*
X34416Y21437D1*
X34415Y21397D1*
X16415Y17397D2*
X16409Y17317D1*
X16397Y17238D1*
X16378Y17160D1*
X16354Y17084D1*
X16324Y17010D1*
X16289Y16938D1*
X16248Y16870D1*
X16202Y16804D1*
X16151Y16743D1*
X16095Y16685D1*
X16035Y16632D1*
X15971Y16584D1*
X15904Y16540D1*
X15834Y16502D1*
X15761Y16470D1*
X15685Y16443D1*
X15608Y16422D1*
X15530Y16407D1*
X15450Y16398D1*
X15370Y16396D1*
X15290Y16399D1*
X15211Y16409D1*
X15132Y16424D1*
X15055Y16446D1*
X14980Y16473D1*
X14907Y16506D1*
X14837Y16545D1*
X14771Y16589D1*
X14707Y16638D1*
X14648Y16691D1*
X14593Y16749D1*
X14542Y16811D1*
X14497Y16877D1*
X14456Y16946D1*
X14421Y17018D1*
X14392Y17092D1*
X14368Y17169D1*
X14351Y17247D1*
X14339Y17326D1*
X14334Y17406D1*
Y17486D1*
X14341Y17565D1*
X14354Y17644D1*
X14373Y17722D1*
X14398Y17798D1*
X14428Y17872D1*
X14465Y17943D1*
X14506Y18012D1*
X14553Y18077D1*
X14604Y18138D1*
X14660Y18195D1*
X14721Y18247D1*
X14785Y18295D1*
X14852Y18338D1*
X14923Y18375D1*
X14996Y18407D1*
X15072Y18433D1*
X15149Y18454D1*
X15228Y18468D1*
X15307Y18476D1*
X15387Y18478D1*
X15467Y18474D1*
X15547Y18464D1*
X15625Y18448D1*
X15702Y18426D1*
X15777Y18398D1*
X15849Y18364D1*
X15919Y18325D1*
X15985Y18280D1*
X16048Y18231D1*
X16107Y18177D1*
X16162Y18118D1*
X16212Y18056D1*
X16257Y17990D1*
X16297Y17920D1*
X16331Y17848D1*
X16360Y17774D1*
X16383Y17697D1*
X16400Y17619D1*
X16411Y17540D1*
X16416Y17437D1*
X16415Y17397D1*
X34915Y10397D2*
X34909Y10317D1*
X34897Y10238D1*
X34878Y10160D1*
X34854Y10084D1*
X34824Y10010D1*
X34789Y9938D1*
X34748Y9870D1*
X34702Y9804D1*
X34651Y9743D1*
X34595Y9685D1*
X34535Y9632D1*
X34471Y9584D1*
X34404Y9540D1*
X34334Y9502D1*
X34261Y9470D1*
X34185Y9443D1*
X34108Y9422D1*
X34030Y9407D1*
X33950Y9398D1*
X33870Y9396D1*
X33790Y9399D1*
X33711Y9409D1*
X33632Y9424D1*
X33555Y9446D1*
X33480Y9473D1*
X33407Y9506D1*
X33337Y9545D1*
X33271Y9589D1*
X33207Y9638D1*
X33148Y9691D1*
X33093Y9749D1*
X33042Y9811D1*
X32997Y9877D1*
X32956Y9946D1*
X32921Y10018D1*
X32892Y10092D1*
X32868Y10169D1*
X32851Y10247D1*
X32839Y10326D1*
X32834Y10406D1*
Y10486D1*
X32841Y10565D1*
X32854Y10644D1*
X32873Y10722D1*
X32898Y10798D1*
X32928Y10872D1*
X32965Y10943D1*
X33006Y11012D1*
X33053Y11077D1*
X33104Y11138D1*
X33160Y11195D1*
X33221Y11247D1*
X33285Y11295D1*
X33352Y11338D1*
X33423Y11375D1*
X33496Y11407D1*
X33572Y11433D1*
X33649Y11454D1*
X33728Y11468D1*
X33807Y11476D1*
X33887Y11478D1*
X33967Y11474D1*
X34047Y11464D1*
X34125Y11448D1*
X34202Y11426D1*
X34277Y11398D1*
X34349Y11364D1*
X34419Y11325D1*
X34485Y11280D1*
X34548Y11231D1*
X34607Y11177D1*
X34662Y11118D1*
X34712Y11056D1*
X34757Y10990D1*
X34797Y10920D1*
X34831Y10848D1*
X34860Y10774D1*
X34883Y10697D1*
X34900Y10619D1*
X34911Y10540D1*
X34916Y10437D1*
X34915Y10397D1*
X33416Y6935D2*
X34373D1*
Y5939D1*
X33376D1*
Y6935D1*
X33416D1*
X32416D2*
X32713D1*
X32711Y7117D1*
Y7871D1*
X32561Y8020D1*
X29884Y10697D1*
X29860Y10728D1*
X29843Y10765D1*
X29836Y10812D1*
Y15246D1*
X29686Y15395D1*
X28432Y16649D1*
X23941D1*
X23792Y16499D1*
X22812Y15518D1*
X22821Y15468D1*
X22820Y15397D1*
X22813Y15358D1*
X22801Y15320D1*
X22784Y15283D1*
X22763Y15250D1*
X22738Y15218D1*
X22709Y15191D1*
X22677Y15167D1*
X22642Y15147D1*
X22605Y15132D1*
X22567Y15121D1*
X22527Y15115D1*
X22487Y15114D1*
X22447Y15118D1*
X22408Y15127D1*
X22371Y15141D1*
X22335Y15159D1*
X22302Y15181D1*
X22272Y15207D1*
X22245Y15237D1*
X22223Y15270D1*
X22204Y15306D1*
X22190Y15343D1*
X22181Y15382D1*
X22177Y15422D1*
Y15462D1*
X22183Y15501D1*
X22193Y15540D1*
X22208Y15577D1*
X22228Y15612D1*
X22251Y15644D1*
X22279Y15673D1*
X22310Y15699D1*
X22343Y15720D1*
X22379Y15737D1*
X22417Y15750D1*
X22457Y15757D1*
X22496Y15760D1*
X22536Y15758D1*
X22582Y15750D1*
X23759Y16927D1*
X23791Y16952D1*
X23827Y16968D1*
X23875Y16975D1*
X28500D1*
X28539Y16970D1*
X28576Y16956D1*
X28615Y16927D1*
X30115Y15427D1*
X30139Y15396D1*
X30156Y15359D1*
X30163Y15312D1*
Y10878D1*
X30313Y10729D1*
X32990Y8052D1*
X33014Y8021D1*
X33031Y7984D1*
X33038Y7937D1*
Y6936D1*
X33373Y6935D1*
Y5939D1*
X32376D1*
Y6935D1*
X32416D1*
X31416D2*
X32373D1*
Y5939D1*
X31376D1*
Y6935D1*
X31416D1*
X30416D2*
X31373D1*
Y5939D1*
X30376D1*
Y6935D1*
X30416D1*
X29416D2*
X30373D1*
Y5939D1*
X29376D1*
Y6935D1*
X29416D1*
X28416D2*
X29373D1*
Y5939D1*
X28376D1*
Y6935D1*
X28416D1*
X27416D2*
X28373D1*
Y5939D1*
X27376D1*
Y6935D1*
X27416D1*
X26416D2*
X27373D1*
Y5939D1*
X26376D1*
Y6935D1*
X26416D1*
X25416D2*
X26373D1*
Y5939D1*
X25376D1*
Y6935D1*
X25416D1*
X24416D2*
X25373D1*
Y5939D1*
X24376D1*
Y6935D1*
X24416D1*
X23416D2*
X24373D1*
Y5939D1*
X23376D1*
Y6935D1*
X23416D1*
X22416D2*
X23373D1*
Y5939D1*
X22376D1*
Y6935D1*
X22416D1*
X21416D2*
X22373D1*
Y5939D1*
X21376D1*
Y6935D1*
X21416D1*
X20416D2*
X21373D1*
Y5939D1*
X20376D1*
Y6935D1*
X20416D1*
X19416D2*
X20373D1*
Y5939D1*
X19376D1*
Y6935D1*
X19416D1*
X18416D2*
X19373D1*
Y5939D1*
X18376D1*
Y6935D1*
X18416D1*
X17416D2*
X18373D1*
Y5939D1*
X17376D1*
Y6935D1*
X17416D1*
X16416D2*
X17373D1*
Y5939D1*
X16376D1*
Y6935D1*
X16416D1*
X15416D2*
X16373D1*
Y5939D1*
X15376D1*
Y6935D1*
X15416D1*
X14416D2*
X15373D1*
Y5939D1*
X14376D1*
Y6935D1*
X14416D1*
Y20935D2*
X15373D1*
Y19939D1*
X14376D1*
Y20935D1*
X14416D1*
X14384Y21935D2*
X15373D1*
Y20939D1*
X14376D1*
Y21935D1*
X14384D1*
X33390Y14272D2*
X33378Y14193D1*
X33353Y14117D1*
X33317Y14046D1*
X33271Y13980D1*
X33215Y13923D1*
X33151Y13875D1*
X33081Y13838D1*
X33005Y13812D1*
X32926Y13798D1*
X32846Y13796D1*
X32767Y13806D1*
X32691Y13829D1*
X32618Y13863D1*
X32552Y13908D1*
X32494Y13962D1*
X32444Y14025D1*
X32405Y14095D1*
X32377Y14170D1*
X32362Y14248D1*
X32358Y14328D1*
X32367Y14408D1*
X32387Y14485D1*
X32420Y14558D1*
X32463Y14625D1*
X32516Y14685D1*
X32578Y14735D1*
X32647Y14776D1*
X32721Y14806D1*
X32799Y14823D1*
X32879Y14829D1*
X32958Y14822D1*
X33036Y14803D1*
X33110Y14772D1*
X33178Y14731D1*
X33239Y14679D1*
X33291Y14618D1*
X33333Y14550D1*
X33364Y14477D1*
X33384Y14399D1*
X33391Y14320D1*
X33390Y14272D1*
X34431Y13304D2*
X34426Y13240D1*
X34414Y13177D1*
X34395Y13116D1*
X34369Y13058D1*
X34337Y13003D1*
X34298Y12952D1*
X34254Y12905D1*
X34205Y12865D1*
X34151Y12830D1*
X34094Y12801D1*
X34034Y12779D1*
X33972Y12764D1*
X33908Y12757D1*
X33844D1*
X33781Y12764D1*
X33718Y12778D1*
X33658Y12800D1*
X33601Y12828D1*
X33547Y12862D1*
X33498Y12903D1*
X33453Y12949D1*
X33414Y13000D1*
X33381Y13055D1*
X33355Y13113D1*
X33336Y13174D1*
X33323Y13237D1*
X33318Y13300D1*
X33321Y13364D1*
X33330Y13428D1*
X33347Y13489D1*
X33371Y13549D1*
X33402Y13605D1*
X33438Y13657D1*
X33481Y13705D1*
X33529Y13748D1*
X33581Y13784D1*
X33637Y13815D1*
X33696Y13839D1*
X33758Y13856D1*
X33821Y13866D1*
X33885Y13868D1*
X33949Y13863D1*
X34012Y13851D1*
X34073Y13832D1*
X34131Y13806D1*
X34186Y13773D1*
X34237Y13734D1*
X34283Y13690D1*
X34324Y13640D1*
X34358Y13587D1*
X34387Y13529D1*
X34408Y13469D1*
X34423Y13407D1*
X34430Y13343D1*
X34431Y13304D1*
Y15304D2*
X34426Y15240D1*
X34414Y15177D1*
X34395Y15116D1*
X34369Y15058D1*
X34337Y15003D1*
X34298Y14952D1*
X34254Y14905D1*
X34205Y14865D1*
X34151Y14830D1*
X34094Y14801D1*
X34034Y14779D1*
X33972Y14764D1*
X33908Y14757D1*
X33844D1*
X33781Y14764D1*
X33718Y14778D1*
X33658Y14800D1*
X33601Y14828D1*
X33547Y14862D1*
X33498Y14903D1*
X33453Y14949D1*
X33414Y15000D1*
X33381Y15055D1*
X33355Y15113D1*
X33336Y15174D1*
X33323Y15237D1*
X33318Y15300D1*
X33321Y15364D1*
X33330Y15428D1*
X33347Y15489D1*
X33371Y15549D1*
X33402Y15605D1*
X33438Y15657D1*
X33481Y15705D1*
X33529Y15748D1*
X33581Y15784D1*
X33637Y15815D1*
X33696Y15839D1*
X33758Y15856D1*
X33821Y15866D1*
X33885Y15868D1*
X33949Y15863D1*
X34012Y15851D1*
X34073Y15832D1*
X34131Y15806D1*
X34186Y15773D1*
X34237Y15734D1*
X34283Y15690D1*
X34324Y15640D1*
X34358Y15587D1*
X34387Y15529D1*
X34408Y15469D1*
X34423Y15407D1*
X34430Y15343D1*
X34431Y15304D1*
X32431D2*
X32426Y15240D1*
X32414Y15177D1*
X32395Y15116D1*
X32369Y15058D1*
X32337Y15003D1*
X32298Y14952D1*
X32254Y14905D1*
X32205Y14865D1*
X32151Y14830D1*
X32094Y14801D1*
X32034Y14779D1*
X31972Y14764D1*
X31908Y14757D1*
X31844D1*
X31781Y14764D1*
X31718Y14778D1*
X31658Y14800D1*
X31601Y14828D1*
X31547Y14862D1*
X31498Y14903D1*
X31453Y14949D1*
X31414Y15000D1*
X31381Y15055D1*
X31355Y15113D1*
X31336Y15174D1*
X31323Y15237D1*
X31318Y15300D1*
X31321Y15364D1*
X31330Y15428D1*
X31347Y15489D1*
X31371Y15549D1*
X31402Y15605D1*
X31438Y15657D1*
X31481Y15705D1*
X31529Y15748D1*
X31581Y15784D1*
X31637Y15815D1*
X31696Y15839D1*
X31758Y15856D1*
X31821Y15866D1*
X31885Y15868D1*
X31949Y15863D1*
X32012Y15851D1*
X32073Y15832D1*
X32131Y15806D1*
X32186Y15773D1*
X32237Y15734D1*
X32283Y15690D1*
X32324Y15640D1*
X32358Y15587D1*
X32387Y15529D1*
X32408Y15469D1*
X32423Y15407D1*
X32430Y15343D1*
X32431Y15304D1*
Y13304D2*
X32426Y13240D1*
X32414Y13177D1*
X32395Y13116D1*
X32369Y13058D1*
X32337Y13003D1*
X32298Y12952D1*
X32254Y12905D1*
X32205Y12865D1*
X32151Y12830D1*
X32094Y12801D1*
X32034Y12779D1*
X31972Y12764D1*
X31908Y12757D1*
X31844D1*
X31781Y12764D1*
X31718Y12778D1*
X31658Y12800D1*
X31601Y12828D1*
X31547Y12862D1*
X31498Y12903D1*
X31453Y12949D1*
X31414Y13000D1*
X31381Y13055D1*
X31355Y13113D1*
X31336Y13174D1*
X31323Y13237D1*
X31318Y13300D1*
X31321Y13364D1*
X31330Y13428D1*
X31347Y13489D1*
X31371Y13549D1*
X31402Y13605D1*
X31438Y13657D1*
X31481Y13705D1*
X31529Y13748D1*
X31581Y13784D1*
X31637Y13815D1*
X31696Y13839D1*
X31758Y13856D1*
X31821Y13866D1*
X31885Y13868D1*
X31949Y13863D1*
X32012Y13851D1*
X32073Y13832D1*
X32131Y13806D1*
X32186Y13773D1*
X32237Y13734D1*
X32283Y13690D1*
X32324Y13640D1*
X32358Y13587D1*
X32387Y13529D1*
X32408Y13469D1*
X32423Y13407D1*
X32430Y13343D1*
X32431Y13304D1*
X22592Y16079D2*
X22583Y16040D1*
X22569Y16003D1*
X22549Y15968D1*
X22524Y15936D1*
X22496Y15909D1*
X22463Y15885D1*
X22427Y15867D1*
X22390Y15854D1*
X22350Y15847D1*
X22310Y15846D1*
X22271Y15850D1*
X22232Y15861D1*
X22195Y15876D1*
X22161Y15897D1*
X22131Y15923D1*
X22104Y15953D1*
X22082Y15986D1*
X22066Y16023D1*
X22054Y16061D1*
X22049Y16101D1*
Y16141D1*
X22055Y16180D1*
X22067Y16218D1*
X22084Y16254D1*
X22106Y16287D1*
X22133Y16317D1*
X22164Y16342D1*
X22198Y16363D1*
X22235Y16378D1*
X22274Y16388D1*
X22314Y16392D1*
X22354Y16390D1*
X22393Y16382D1*
X22431Y16369D1*
X22466Y16351D1*
X22498Y16327D1*
X22527Y16299D1*
X22551Y16267D1*
X22570Y16232D1*
X22584Y16194D1*
X22592Y16155D1*
X22594Y16119D1*
X22592Y16079D1*
X26461Y11981D2*
X26453Y11942D1*
X26438Y11904D1*
X26419Y11869D1*
X26394Y11838D1*
X26366Y11810D1*
X26333Y11787D1*
X26297Y11769D1*
X26260Y11756D1*
X26220Y11749D1*
X26180Y11747D1*
X26141Y11752D1*
X26102Y11762D1*
X26065Y11778D1*
X26031Y11799D1*
X26001Y11825D1*
X25974Y11855D1*
X25952Y11888D1*
X25935Y11924D1*
X25924Y11963D1*
X25919Y12002D1*
Y12042D1*
X25925Y12082D1*
X25937Y12120D1*
X25954Y12156D1*
X25976Y12189D1*
X26003Y12219D1*
X26034Y12244D1*
X26068Y12264D1*
X26105Y12280D1*
X26144Y12290D1*
X26184Y12294D1*
X26224Y12292D1*
X26263Y12284D1*
X26301Y12271D1*
X26336Y12252D1*
X26368Y12229D1*
X26397Y12200D1*
X26421Y12169D1*
X26440Y12133D1*
X26454Y12096D1*
X26462Y12057D1*
X26464Y12020D1*
X26461Y11981D1*
X26288Y15408D2*
Y12937D1*
X26283Y12897D1*
X26268Y12860D1*
X26240Y12822D1*
X25990Y12572D1*
X25958Y12547D1*
X25922Y12531D1*
X25875Y12524D1*
X25017Y12522D1*
X24980Y12507D1*
X24942Y12496D1*
X24902Y12490D1*
X24862Y12489D1*
X24822Y12493D1*
X24783Y12502D1*
X24746Y12516D1*
X24710Y12534D1*
X24677Y12556D1*
X24647Y12582D1*
X24620Y12612D1*
X24598Y12645D1*
X24579Y12681D1*
X24565Y12718D1*
X24556Y12757D1*
X24552Y12797D1*
Y12837D1*
X24558Y12876D1*
X24568Y12915D1*
X24583Y12952D1*
X24603Y12987D1*
X24626Y13019D1*
X24654Y13048D1*
X24685Y13074D1*
X24718Y13095D1*
X24754Y13112D1*
X24792Y13125D1*
X24832Y13132D1*
X24871Y13135D1*
X24911Y13133D1*
X24951Y13126D1*
X24989Y13114D1*
X25025Y13098D1*
X25059Y13077D1*
X25091Y13052D1*
X25119Y13024D1*
X25143Y12992D1*
X25163Y12957D1*
X25179Y12921D1*
X25190Y12882D1*
X25195Y12849D1*
X25280Y12850D1*
X25808D1*
X25962Y13005D1*
X25960Y15409D1*
X25927Y15431D1*
X25897Y15457D1*
X25870Y15487D1*
X25848Y15520D1*
X25829Y15556D1*
X25815Y15593D1*
X25806Y15632D1*
X25802Y15672D1*
Y15712D1*
X25808Y15751D1*
X25818Y15790D1*
X25833Y15827D1*
X25853Y15862D1*
X25876Y15894D1*
X25904Y15923D1*
X25935Y15949D1*
X25968Y15970D1*
X26004Y15987D1*
X26042Y16000D1*
X26082Y16007D1*
X26121Y16010D1*
X26161Y16008D1*
X26201Y16001D1*
X26239Y15989D1*
X26275Y15973D1*
X26309Y15952D1*
X26341Y15927D1*
X26369Y15899D1*
X26393Y15867D1*
X26413Y15832D1*
X26429Y15796D1*
X26440Y15757D1*
X26448Y15687D1*
X26445Y15647D1*
X26438Y15608D1*
X26426Y15570D1*
X26409Y15533D1*
X26388Y15500D1*
X26363Y15468D1*
X26334Y15441D1*
X26288Y15409D1*
X35295Y23397D2*
X13915D1*
Y4477D1*
X35335D1*
Y23397D1*
X35295D1*
X14875Y21935D2*
D16*
Y20939D1*
X14376Y21437D2*
X15373D1*
X33875Y13868D2*
Y12756D1*
X33318Y13312D2*
X34431D1*
X33875Y15868D2*
Y14756D1*
X33318Y15312D2*
X34431D1*
X31875Y15868D2*
Y14756D1*
X31318Y15312D2*
X32431D1*
X31875Y13868D2*
Y12756D1*
X31318Y13312D2*
X32431D1*
D20*
X22750Y12187D3*
X23852D3*
X16522Y12562D3*
X17625D3*
X19750Y8687D3*
X20852D3*
D22*
X33875Y6437D3*
X32875D3*
X31875D3*
X30875D3*
X29875D3*
X28875D3*
X27875D3*
X26875D3*
X25875D3*
X24875D3*
X23875D3*
X22875D3*
X21875D3*
X20875D3*
X19875D3*
X18875D3*
X17875D3*
X16875D3*
X15875D3*
X14875D3*
Y20437D3*
Y21437D3*
D23*
X32875Y14312D3*
D24*
X33875Y13312D3*
Y15312D3*
X31875D3*
Y13312D3*
D25*
X17625Y11562D3*
X17875Y15062D3*
X18750D3*
X21250Y9687D3*
X20250Y10687D3*
X20140Y11999D3*
X22321Y16119D3*
X26191Y12020D3*
X14375Y4937D3*
X34875Y14937D3*
Y4937D3*
Y22937D3*
X14375D3*
X24375Y4937D3*
Y22937D3*
X14375Y14937D3*
D34*
X21500Y13812D3*
M02*
