M48
INCH
T01C0.015
T02C0.0191
T03C0.0394
T04C0.04
T05C0.0591
T06C0.0669
T07C0.13
%
T01
X+017625Y+011562
X+020140Y+011999
X+020250Y+010687
X+021250Y+009687
X+026191Y+012020
X+022321Y+016119
X+018750Y+015062
X+017875Y+015062
X+014375Y+014937
X+014375Y+022937
X+024375Y+022937
X+034875Y+022937
X+034875Y+014937
X+034875Y+004937
X+024375Y+004937
X+014375Y+004937
T02
X+027000Y+017937
X+026125Y+015687
X+024875Y+012812
X+023875Y+011312
X+020875Y+010562
X+017875Y+013437
X+022500Y+015437
T03
X+021500Y+013812
T04
X+033875Y+006437
X+032875Y+006437
X+031875Y+006437
X+030875Y+006437
X+029875Y+006437
X+028875Y+006437
X+027875Y+006437
X+026875Y+006437
X+025875Y+006437
X+024875Y+006437
X+023875Y+006437
X+022875Y+006437
X+021875Y+006437
X+020875Y+006437
X+019875Y+006437
X+018875Y+006437
X+017875Y+006437
X+016875Y+006437
X+015875Y+006437
X+014875Y+006437
X+014875Y+020437
X+014875Y+021437
T05
X+032875Y+014312
T06
X+033875Y+013312
X+033875Y+015312
X+031875Y+015312
X+031875Y+013312
T07
X+033375Y+021437
X+033875Y+010437
X+015375Y+017437
T00
M30
