G04 DipTrace 2.3.1.0*
%INTop.gbr*%
%MOIN*%
%ADD14C,0.015*%
%ADD15C,0.008*%
%ADD16C,0.013*%
%ADD17C,0.01*%
%ADD18R,0.0591X0.0512*%
%ADD19R,0.0512X0.0591*%
%ADD20R,0.063X0.0709*%
%ADD22R,0.075X0.075*%
%ADD23C,0.0787*%
%ADD24C,0.0866*%
%ADD25C,0.03*%
%ADD27R,0.065X0.0299*%
%ADD29O,0.038X0.008*%
%ADD30O,0.008X0.038*%
%ADD31R,0.122X0.122*%
%ADD32R,0.06X0.05*%
%ADD33R,0.31X0.3*%
%ADD34C,0.0591*%
%ADD35C,0.04*%
%FSLAX44Y44*%
G04*
G70*
G90*
G75*
G01*
%LNTop*%
%LPD*%
X27000Y17937D2*
D14*
X27250D1*
X27875Y18562D1*
Y19437D1*
Y20437D1*
Y21437D1*
X24625Y20437D2*
X27875D1*
X21375D2*
X24625D1*
X22504Y14149D2*
D15*
X21815D1*
X21520Y13854D1*
X22012Y14838D2*
Y14346D1*
X21520Y13854D1*
X21815Y12870D2*
Y13559D1*
X21520Y13854D1*
X21028Y12870D2*
Y13362D1*
X21520Y13854D1*
X22012Y14838D2*
Y16075D1*
X22375Y16437D1*
X22504Y14149D2*
X24087D1*
X24375Y14437D1*
X24875D1*
X21028Y12870D2*
Y12340D1*
X20625Y11937D1*
X20250D1*
X20125Y11812D1*
Y11439D1*
X20126Y11437D1*
X22504Y13165D2*
X22896D1*
X23125Y12937D1*
Y11062D1*
X23625Y10562D1*
X31500D1*
X33875Y8187D1*
Y6437D1*
X22209Y14838D2*
Y15146D1*
X22500Y15437D1*
X22210Y12874D2*
Y10602D1*
X22500Y10312D1*
X29250D1*
X31875Y7687D1*
Y6437D1*
X22012Y12870D2*
Y10300D1*
X22250Y10062D1*
X28375D1*
X30875Y7562D1*
Y6437D1*
X21618Y12870D2*
Y12318D1*
X21750Y12187D1*
Y10062D1*
X22000Y9812D1*
X27500D1*
X29875Y7437D1*
Y6437D1*
X21421Y12870D2*
Y12265D1*
X21500Y12187D1*
Y9937D1*
X21875Y9562D1*
X27000D1*
X28875Y7687D1*
Y6437D1*
X20831Y12870D2*
Y12518D1*
X20625Y12312D1*
X19750D1*
X19375Y11937D1*
Y11062D1*
X21125Y9312D1*
X26375D1*
X27875Y7812D1*
Y6437D1*
X20536Y13165D2*
X19728D1*
X19000Y12437D1*
Y11062D1*
X21000Y9062D1*
X25750D1*
X26875Y7937D1*
Y6437D1*
X20536Y13362D2*
X19550D1*
X18750Y12562D1*
Y10937D1*
X20875Y8812D1*
X24625D1*
X25875Y7562D1*
Y6437D1*
X24875D2*
Y7437D1*
X23750Y8562D1*
X20750D1*
X18500Y10812D1*
Y12687D1*
X19371Y13559D1*
X20536D1*
Y13756D2*
X19193D1*
X18250Y12812D1*
Y10687D1*
X20625Y8312D1*
X23000D1*
X23875Y7437D1*
Y6437D1*
X20536Y13953D2*
X19015D1*
X18000Y12937D1*
Y10562D1*
X20500Y8062D1*
X22250D1*
X22875Y7437D1*
Y6437D1*
X20536Y14346D2*
X20090D1*
X19000Y15437D1*
X17500D1*
X17250Y15187D1*
Y10937D1*
X20375Y7812D1*
X21375D1*
X21875Y7312D1*
Y6437D1*
X20540Y14544D2*
X20267D1*
X19125Y15687D1*
X17375D1*
X17000Y15312D1*
Y10812D1*
X20250Y7562D1*
X20625D1*
X20875Y7312D1*
Y6437D1*
X20830Y14834D2*
Y15232D1*
X20125Y15937D1*
X17250D1*
X16750Y15437D1*
Y10687D1*
X19875Y7562D1*
Y6437D1*
X21028Y14838D2*
Y15409D1*
X20250Y16187D1*
X17250D1*
X16375Y15312D1*
Y10687D1*
X18875Y8187D1*
Y6437D1*
X21225Y14838D2*
Y15587D1*
X20375Y16437D1*
X17250D1*
X16000Y15187D1*
Y10687D1*
X17875Y8812D1*
Y6437D1*
X21421Y14838D2*
Y15765D1*
X20500Y16687D1*
X17250D1*
X15625Y15062D1*
Y10687D1*
X16875Y9437D1*
Y6437D1*
X21618Y14838D2*
Y15943D1*
X20625Y16937D1*
X17250D1*
X15250Y14937D1*
Y10687D1*
X15875Y10062D1*
Y6437D1*
X21815Y14838D2*
Y16121D1*
X20750Y17187D1*
X17250D1*
X14875Y14812D1*
Y6437D1*
Y20437D2*
D14*
X19212D1*
X19318Y20543D1*
X21375Y19437D2*
X20875D1*
X19875Y20437D1*
X19318D1*
Y20543D1*
X20536Y14149D2*
D15*
X19662D1*
X19375Y14437D1*
X18622D1*
X17875Y13437D2*
X18875Y14437D1*
X18622D1*
X21225Y12870D2*
Y12162D1*
X20875Y11812D1*
Y11437D1*
Y10562D2*
Y11437D1*
X22504Y13362D2*
X23450D1*
X23875Y12937D1*
Y12062D1*
X24625D1*
X23875Y11312D2*
Y12062D1*
X22504Y14543D2*
X22981D1*
X23250Y14812D1*
Y15937D1*
Y15938D1*
X22504Y14346D2*
X23034D1*
X23750Y15062D1*
X24375D1*
X22504Y13953D2*
X24390D1*
X24625Y14187D1*
X25623D1*
X25625Y14185D1*
D16*
X26248D1*
X26375Y14312D1*
X27248D1*
Y13812D2*
X27875D1*
Y15937D1*
Y12312D2*
Y13812D1*
Y16685D2*
D15*
Y17187D1*
X27625Y17437D1*
X26375D1*
X26125Y17187D1*
Y15687D1*
X24875Y12812D2*
X24128Y13559D1*
X22504D1*
X28500Y14312D2*
D16*
X32875D1*
X22504Y13756D2*
D15*
X24306D1*
X24625Y13437D1*
X25625D1*
D16*
X26250D1*
X26375Y13312D1*
X27248D1*
D35*
X27000Y17937D3*
X22500Y15437D3*
X17875Y13437D3*
X20875Y10562D3*
X23875Y11312D3*
X26125Y15687D3*
X24875Y12812D3*
X13965Y23213D2*
D14*
X35285D1*
X13965Y23065D2*
X35285D1*
X13965Y22916D2*
X35285D1*
X13965Y22767D2*
X35285D1*
X13965Y22619D2*
X35285D1*
X13965Y22470D2*
X33058D1*
X33691D2*
X35285D1*
X13965Y22321D2*
X32747D1*
X34002D2*
X35285D1*
X13965Y22173D2*
X32573D1*
X34176D2*
X35285D1*
X13965Y22024D2*
X22898D1*
X26350D2*
X32458D1*
X34291D2*
X35285D1*
X13965Y21875D2*
X14325D1*
X15426D2*
X22898D1*
X26350D2*
X27443D1*
X29055D2*
X32376D1*
X34373D2*
X35285D1*
X13965Y21726D2*
X14325D1*
X15426D2*
X20899D1*
X21850D2*
X22898D1*
X26350D2*
X27443D1*
X29055D2*
X32322D1*
X34427D2*
X35285D1*
X13965Y21578D2*
X14325D1*
X15426D2*
X18848D1*
X19790D2*
X20899D1*
X21850D2*
X22898D1*
X26350D2*
X27443D1*
X29055D2*
X32292D1*
X34457D2*
X35285D1*
X13965Y21429D2*
X14325D1*
X15426D2*
X18848D1*
X19790D2*
X20899D1*
X21850D2*
X22898D1*
X26350D2*
X27443D1*
X29055D2*
X32283D1*
X34466D2*
X35285D1*
X13965Y21280D2*
X14325D1*
X15426D2*
X18848D1*
X19790D2*
X20899D1*
X21850D2*
X22898D1*
X26350D2*
X27443D1*
X29055D2*
X32294D1*
X34455D2*
X35285D1*
X13965Y21132D2*
X14325D1*
X15426D2*
X18848D1*
X19790D2*
X20899D1*
X21850D2*
X22898D1*
X26350D2*
X27443D1*
X29055D2*
X32327D1*
X34422D2*
X35285D1*
X13965Y20983D2*
X14325D1*
X15426D2*
X18848D1*
X19790D2*
X22898D1*
X26350D2*
X27443D1*
X29055D2*
X32383D1*
X34366D2*
X35285D1*
X13965Y20834D2*
X14325D1*
X15426D2*
X18848D1*
X19790D2*
X20899D1*
X21850D2*
X22898D1*
X26350D2*
X27623D1*
X28124D2*
X32468D1*
X34281D2*
X35285D1*
X13965Y20686D2*
X14325D1*
X15426D2*
X18848D1*
X19790D2*
X20899D1*
X21850D2*
X22898D1*
X26350D2*
X27623D1*
X28124D2*
X32590D1*
X34159D2*
X35285D1*
X13965Y20537D2*
X14325D1*
X20123D2*
X20899D1*
X28124D2*
X32770D1*
X33979D2*
X35285D1*
X13965Y20388D2*
X14325D1*
X20273D2*
X20899D1*
X28124D2*
X33117D1*
X33632D2*
X35285D1*
X13965Y20240D2*
X14325D1*
X20420D2*
X20899D1*
X28124D2*
X35285D1*
X13965Y20091D2*
X14325D1*
X15426D2*
X19872D1*
X20570D2*
X20899D1*
X21850D2*
X22898D1*
X26350D2*
X27623D1*
X28124D2*
X35285D1*
X13965Y19942D2*
X14325D1*
X15426D2*
X20020D1*
X20718D2*
X22898D1*
X26350D2*
X27384D1*
X28366D2*
X28486D1*
X29467D2*
X35285D1*
X13965Y19794D2*
X20170D1*
X21850D2*
X22898D1*
X26350D2*
X27384D1*
X28366D2*
X28486D1*
X29467D2*
X35285D1*
X13965Y19645D2*
X20318D1*
X21850D2*
X22898D1*
X26350D2*
X27384D1*
X28366D2*
X28486D1*
X29467D2*
X35285D1*
X13965Y19496D2*
X20468D1*
X21850D2*
X22898D1*
X26350D2*
X27384D1*
X28366D2*
X28486D1*
X29467D2*
X35285D1*
X13965Y19347D2*
X20615D1*
X21850D2*
X22898D1*
X26350D2*
X27384D1*
X28366D2*
X28486D1*
X29467D2*
X35285D1*
X13965Y19199D2*
X20899D1*
X21850D2*
X22898D1*
X26350D2*
X27384D1*
X28366D2*
X28486D1*
X29467D2*
X35285D1*
X13965Y19050D2*
X20899D1*
X21850D2*
X22898D1*
X26350D2*
X27384D1*
X28366D2*
X28486D1*
X29467D2*
X35285D1*
X13965Y18901D2*
X22898D1*
X26350D2*
X27623D1*
X28124D2*
X35285D1*
X13965Y18753D2*
X27623D1*
X28124D2*
X35285D1*
X13965Y18604D2*
X27567D1*
X28124D2*
X35285D1*
X13965Y18455D2*
X15011D1*
X15738D2*
X27419D1*
X28101D2*
X35285D1*
X13965Y18307D2*
X14726D1*
X16023D2*
X27272D1*
X27967D2*
X35285D1*
X13965Y18158D2*
X14561D1*
X16188D2*
X26700D1*
X27820D2*
X35285D1*
X13965Y18009D2*
X14449D1*
X16300D2*
X26632D1*
X27670D2*
X35285D1*
X13965Y17861D2*
X14369D1*
X16380D2*
X26632D1*
X27522D2*
X35285D1*
X13965Y17712D2*
X14320D1*
X16429D2*
X26702D1*
X27334D2*
X35285D1*
X13965Y17563D2*
X14290D1*
X16459D2*
X26201D1*
X27798D2*
X35285D1*
X13965Y17415D2*
X14283D1*
X16466D2*
X26053D1*
X27946D2*
X35285D1*
X13965Y17266D2*
X14297D1*
X16452D2*
X17029D1*
X20969D2*
X25924D1*
X28075D2*
X35285D1*
X13965Y17117D2*
X14332D1*
X16417D2*
X16879D1*
X21119D2*
X25908D1*
X26355D2*
X27644D1*
X28091D2*
X35285D1*
X13965Y16968D2*
X14390D1*
X16359D2*
X16732D1*
X21266D2*
X22779D1*
X23723D2*
X25908D1*
X26341D2*
X27403D1*
X28345D2*
X35285D1*
X13965Y16820D2*
X14477D1*
X16272D2*
X16584D1*
X21416D2*
X22779D1*
X23723D2*
X25908D1*
X26341D2*
X27403D1*
X28345D2*
X35285D1*
X13965Y16671D2*
X14604D1*
X16145D2*
X16434D1*
X21564D2*
X22779D1*
X23723D2*
X25908D1*
X26341D2*
X27403D1*
X28345D2*
X35285D1*
X13965Y16522D2*
X14793D1*
X15956D2*
X16286D1*
X21714D2*
X22779D1*
X23723D2*
X25908D1*
X26341D2*
X27403D1*
X28345D2*
X35285D1*
X13965Y16374D2*
X15194D1*
X15555D2*
X16136D1*
X21862D2*
X22129D1*
X22513D2*
X22779D1*
X23723D2*
X25908D1*
X26341D2*
X27403D1*
X28345D2*
X35285D1*
X13965Y16225D2*
X15989D1*
X22628D2*
X22779D1*
X23723D2*
X25908D1*
X26341D2*
X27403D1*
X28345D2*
X35285D1*
X13965Y16076D2*
X15839D1*
X22645D2*
X22779D1*
X23723D2*
X25908D1*
X26341D2*
X27403D1*
X28345D2*
X35285D1*
X13965Y15928D2*
X15691D1*
X22581D2*
X22779D1*
X23723D2*
X25840D1*
X26409D2*
X27403D1*
X28345D2*
X35285D1*
X13965Y15779D2*
X15543D1*
X22031D2*
X22368D1*
X22631D2*
X22779D1*
X23723D2*
X25760D1*
X26488D2*
X27403D1*
X28345D2*
X31493D1*
X32256D2*
X33492D1*
X34256D2*
X35285D1*
X13965Y15630D2*
X15393D1*
X22031D2*
X22179D1*
X23723D2*
X25753D1*
X26495D2*
X27403D1*
X28345D2*
X31359D1*
X32390D2*
X33358D1*
X34391D2*
X35285D1*
X13965Y15482D2*
X15246D1*
X22031D2*
X22127D1*
X22872D2*
X23034D1*
X23465D2*
X23943D1*
X25553D2*
X25814D1*
X26437D2*
X27633D1*
X28115D2*
X31291D1*
X32458D2*
X33290D1*
X34459D2*
X35285D1*
X13965Y15333D2*
X15096D1*
X22860D2*
X23034D1*
X23465D2*
X23943D1*
X25553D2*
X26041D1*
X26209D2*
X27633D1*
X28115D2*
X31265D1*
X32484D2*
X33267D1*
X34483D2*
X35285D1*
X13965Y15184D2*
X14948D1*
X17545D2*
X18954D1*
X22771D2*
X23034D1*
X23465D2*
X23573D1*
X25553D2*
X27633D1*
X28115D2*
X31279D1*
X32470D2*
X33279D1*
X34469D2*
X35285D1*
X13965Y15036D2*
X14798D1*
X17465D2*
X19101D1*
X22429D2*
X23034D1*
X25553D2*
X27633D1*
X28115D2*
X31333D1*
X32416D2*
X33335D1*
X34415D2*
X35285D1*
X13965Y14887D2*
X14674D1*
X19054D2*
X19251D1*
X22429D2*
X23025D1*
X25553D2*
X27633D1*
X28115D2*
X31446D1*
X32303D2*
X33445D1*
X34305D2*
X35285D1*
X13965Y14738D2*
X14658D1*
X19054D2*
X19399D1*
X23725D2*
X23943D1*
X25553D2*
X27633D1*
X28115D2*
X31706D1*
X32043D2*
X32505D1*
X33245D2*
X33708D1*
X34042D2*
X35285D1*
X13965Y14589D2*
X14658D1*
X23575D2*
X25153D1*
X26095D2*
X26747D1*
X29001D2*
X32379D1*
X33370D2*
X35285D1*
X13965Y14441D2*
X14658D1*
X23427D2*
X25153D1*
X33428D2*
X35285D1*
X13965Y14292D2*
X14658D1*
X23280D2*
X24431D1*
X33445D2*
X35285D1*
X13965Y14143D2*
X14658D1*
X33419D2*
X35285D1*
X13965Y13995D2*
X14658D1*
X29001D2*
X32404D1*
X33344D2*
X35285D1*
X13965Y13846D2*
X14658D1*
X17465D2*
X17983D1*
X29001D2*
X31601D1*
X32148D2*
X32559D1*
X33189D2*
X33600D1*
X34150D2*
X35285D1*
X13965Y13697D2*
X14658D1*
X17465D2*
X17611D1*
X29001D2*
X31408D1*
X32341D2*
X33408D1*
X34342D2*
X35285D1*
X13965Y13549D2*
X14658D1*
X29001D2*
X31315D1*
X32434D2*
X33314D1*
X34434D2*
X35285D1*
X13965Y13400D2*
X14658D1*
X29001D2*
X31272D1*
X32477D2*
X33272D1*
X34476D2*
X35285D1*
X13965Y13251D2*
X14658D1*
X17465D2*
X17550D1*
X29001D2*
X31268D1*
X32481D2*
X33269D1*
X34481D2*
X35285D1*
X13965Y13103D2*
X14658D1*
X17465D2*
X17723D1*
X23259D2*
X23409D1*
X26095D2*
X26276D1*
X29001D2*
X31303D1*
X32446D2*
X33304D1*
X34445D2*
X35285D1*
X13965Y12954D2*
X14658D1*
X17465D2*
X17784D1*
X23341D2*
X23559D1*
X25220D2*
X27633D1*
X28115D2*
X31385D1*
X32364D2*
X33386D1*
X34363D2*
X35285D1*
X13965Y12805D2*
X14658D1*
X17465D2*
X17784D1*
X23341D2*
X23658D1*
X25251D2*
X27633D1*
X28115D2*
X31549D1*
X32200D2*
X33551D1*
X34199D2*
X35285D1*
X13965Y12656D2*
X14658D1*
X17465D2*
X17784D1*
X23341D2*
X23658D1*
X25216D2*
X27403D1*
X28345D2*
X35285D1*
X13965Y12508D2*
X14658D1*
X17465D2*
X17784D1*
X23341D2*
X23658D1*
X25804D2*
X27403D1*
X28345D2*
X35285D1*
X13965Y12359D2*
X14658D1*
X17465D2*
X17784D1*
X23341D2*
X23658D1*
X25804D2*
X27403D1*
X28345D2*
X35285D1*
X13965Y12210D2*
X14658D1*
X17465D2*
X17784D1*
X20821D2*
X20974D1*
X23341D2*
X23658D1*
X25804D2*
X25931D1*
X26453D2*
X27403D1*
X28345D2*
X35285D1*
X13965Y12062D2*
X14658D1*
X17465D2*
X17784D1*
X19799D2*
X20826D1*
X23341D2*
X23658D1*
X26514D2*
X27403D1*
X28345D2*
X35285D1*
X13965Y11913D2*
X14658D1*
X17465D2*
X17784D1*
X19649D2*
X20686D1*
X23341D2*
X23658D1*
X25804D2*
X25884D1*
X26498D2*
X27403D1*
X28345D2*
X35285D1*
X13965Y11764D2*
X14658D1*
X17465D2*
X17784D1*
X19591D2*
X19693D1*
X23341D2*
X23658D1*
X24091D2*
X24193D1*
X25804D2*
X25999D1*
X26383D2*
X27403D1*
X28345D2*
X35285D1*
X13965Y11616D2*
X14658D1*
X17465D2*
X17784D1*
X19591D2*
X19693D1*
X23341D2*
X23658D1*
X24091D2*
X24193D1*
X25804D2*
X27403D1*
X28345D2*
X35285D1*
X13965Y11467D2*
X14658D1*
X17465D2*
X17784D1*
X19591D2*
X19693D1*
X23341D2*
X23533D1*
X24215D2*
X27403D1*
X28345D2*
X33548D1*
X34202D2*
X35285D1*
X13965Y11318D2*
X14658D1*
X17465D2*
X17784D1*
X19591D2*
X19693D1*
X23341D2*
X23498D1*
X24250D2*
X27403D1*
X28345D2*
X33241D1*
X34506D2*
X35285D1*
X13965Y11170D2*
X14658D1*
X17465D2*
X17784D1*
X19591D2*
X19693D1*
X23341D2*
X23529D1*
X24222D2*
X27403D1*
X28345D2*
X33070D1*
X34677D2*
X35285D1*
X13965Y11021D2*
X14658D1*
X17465D2*
X17784D1*
X23465D2*
X23646D1*
X24102D2*
X32955D1*
X34795D2*
X35285D1*
X13965Y10872D2*
X14658D1*
X17613D2*
X17784D1*
X19863D2*
X20658D1*
X21091D2*
X21283D1*
X23613D2*
X32876D1*
X34874D2*
X35285D1*
X13965Y10724D2*
X14658D1*
X20013D2*
X20536D1*
X31633D2*
X32822D1*
X34926D2*
X35285D1*
X13965Y10575D2*
X14658D1*
X20160D2*
X20498D1*
X31785D2*
X32791D1*
X34956D2*
X35285D1*
X13965Y10426D2*
X14658D1*
X20310D2*
X20526D1*
X31935D2*
X32784D1*
X34966D2*
X35285D1*
X13965Y10277D2*
X14658D1*
X20458D2*
X20636D1*
X21112D2*
X21283D1*
X32083D2*
X32796D1*
X34954D2*
X35285D1*
X13965Y10129D2*
X14658D1*
X20608D2*
X21283D1*
X32233D2*
X32829D1*
X34921D2*
X35285D1*
X13965Y9980D2*
X14658D1*
X20756D2*
X21283D1*
X32381D2*
X32885D1*
X34865D2*
X35285D1*
X13965Y9831D2*
X14658D1*
X20903D2*
X21314D1*
X32528D2*
X32969D1*
X34778D2*
X35285D1*
X13965Y9683D2*
X14658D1*
X21053D2*
X21454D1*
X32678D2*
X33091D1*
X34656D2*
X35285D1*
X13965Y9534D2*
X14658D1*
X21201D2*
X21604D1*
X32826D2*
X33274D1*
X34476D2*
X35285D1*
X13965Y9385D2*
X14658D1*
X32976D2*
X33630D1*
X34117D2*
X35285D1*
X13965Y9237D2*
X14658D1*
X33123D2*
X35285D1*
X13965Y9088D2*
X14658D1*
X33273D2*
X35285D1*
X13965Y8939D2*
X14658D1*
X33421D2*
X35285D1*
X13965Y8791D2*
X14658D1*
X33569D2*
X35285D1*
X13965Y8642D2*
X14658D1*
X33719D2*
X35285D1*
X13965Y8493D2*
X14658D1*
X33866D2*
X35285D1*
X13965Y8345D2*
X14658D1*
X34016D2*
X35285D1*
X13965Y8196D2*
X14658D1*
X34089D2*
X35285D1*
X13965Y8047D2*
X14658D1*
X34091D2*
X35285D1*
X13965Y7898D2*
X14658D1*
X34091D2*
X35285D1*
X13965Y7750D2*
X14658D1*
X34091D2*
X35285D1*
X13965Y7601D2*
X14658D1*
X34091D2*
X35285D1*
X13965Y7452D2*
X14658D1*
X34091D2*
X35285D1*
X13965Y7304D2*
X14658D1*
X34091D2*
X35285D1*
X13965Y7155D2*
X14658D1*
X34091D2*
X35285D1*
X13965Y7006D2*
X14658D1*
X34091D2*
X35285D1*
X13965Y6858D2*
X14325D1*
X34424D2*
X35285D1*
X13965Y6709D2*
X14325D1*
X34424D2*
X35285D1*
X13965Y6560D2*
X14325D1*
X34424D2*
X35285D1*
X13965Y6412D2*
X14325D1*
X34424D2*
X35285D1*
X13965Y6263D2*
X14325D1*
X34424D2*
X35285D1*
X13965Y6114D2*
X14325D1*
X34424D2*
X35285D1*
X13965Y5966D2*
X14325D1*
X34424D2*
X35285D1*
X13965Y5817D2*
X35285D1*
X13965Y5668D2*
X35285D1*
X13965Y5519D2*
X35285D1*
X13965Y5371D2*
X35285D1*
X13965Y5222D2*
X35285D1*
X13965Y5073D2*
X35285D1*
X13965Y4925D2*
X35285D1*
X13965Y4776D2*
X35285D1*
X13965Y4627D2*
X35285D1*
X19774Y20960D2*
X19775Y20672D1*
X19875Y20673D1*
X19948Y20661D1*
X20016Y20625D1*
X20200Y20445D1*
X20915Y19731D1*
X20914Y19848D1*
X21836D1*
Y19026D1*
X20914D1*
Y19202D1*
X20875Y19201D1*
X20801Y19213D1*
X20733Y19249D1*
X20549Y19429D1*
X19778Y20200D1*
X19775Y20126D1*
X18862D1*
Y20199D1*
X18537Y20201D1*
X15408D1*
X15411Y19901D1*
X14339D1*
X14341Y20973D1*
X14339Y21021D1*
Y21973D1*
X15411D1*
Y20671D1*
X15850Y20673D1*
X18861D1*
X18864Y20960D1*
X18862Y21009D1*
Y21708D1*
X19775D1*
X19774Y20874D1*
X27533Y21893D2*
X28291Y21891D1*
X28341Y21893D1*
X29039D1*
Y20981D1*
X28111D1*
Y19952D1*
X28350D1*
Y18922D1*
X28109D1*
X28111Y18562D1*
X28099Y18488D1*
X28063Y18420D1*
X27882Y18236D1*
X27416Y17770D1*
X27356Y17726D1*
X27282Y17704D1*
X27313Y17710D1*
X27243Y17670D1*
X27200Y17638D1*
X27625D1*
X27698Y17624D1*
X27767Y17579D1*
X28017Y17329D1*
X28059Y17268D1*
X28076Y17187D1*
Y17100D1*
X28331Y17102D1*
X28328Y16268D1*
X28331Y16204D1*
Y15520D1*
X28099D1*
X28100Y14962D1*
Y14622D1*
X28985Y14623D1*
Y14536D1*
X29400Y14538D1*
X32369D1*
X32390Y14582D1*
X32431Y14645D1*
X32480Y14702D1*
X32536Y14752D1*
X32598Y14793D1*
X32666Y14826D1*
X32737Y14849D1*
X32811Y14863D1*
X32886Y14867D1*
X32960Y14860D1*
X33033Y14844D1*
X33103Y14817D1*
X33169Y14782D1*
X33230Y14738D1*
X33284Y14686D1*
X33331Y14627D1*
X33369Y14563D1*
X33399Y14494D1*
X33418Y14422D1*
X33429Y14312D1*
X33424Y14237D1*
X33409Y14164D1*
X33384Y14093D1*
X33350Y14026D1*
X33307Y13965D1*
X33256Y13910D1*
X33199Y13862D1*
X33135Y13822D1*
X33067Y13792D1*
X32995Y13771D1*
X32921Y13759D1*
X32846Y13758D1*
X32771Y13767D1*
X32699Y13786D1*
X32630Y13814D1*
X32565Y13852D1*
X32506Y13898D1*
X32453Y13951D1*
X32408Y14011D1*
X32368Y14088D1*
X32050Y14086D1*
X28986D1*
X28985Y13501D1*
Y13001D1*
X28101D1*
X28100Y12727D1*
X28331Y12729D1*
X28328Y11895D1*
X28331Y11846D1*
Y11147D1*
X27418D1*
Y12729D1*
X27650D1*
X27649Y13003D1*
X27058Y13001D1*
X26762D1*
Y13088D1*
X26375Y13086D1*
X26301Y13098D1*
X26241Y13130D1*
X26157Y13210D1*
X26078Y13211D1*
X26081Y13020D1*
X25169D1*
X25197Y12974D1*
X25224Y12904D1*
X25236Y12812D1*
X25228Y12738D1*
X25205Y12666D1*
X25168Y12601D1*
X25118Y12545D1*
X25082Y12519D1*
X25789Y12518D1*
Y11606D1*
X24208D1*
Y11861D1*
X24074D1*
X24076Y11610D1*
X24104Y11591D1*
X24157Y11537D1*
X24197Y11474D1*
X24224Y11404D1*
X24236Y11312D1*
X24228Y11238D1*
X24205Y11166D1*
X24168Y11101D1*
X24118Y11045D1*
X24058Y11001D1*
X23990Y10970D1*
X23916Y10953D1*
X23842D1*
X23768Y10967D1*
X23699Y10996D1*
X23638Y11039D1*
X23587Y11094D1*
X23548Y11158D1*
X23523Y11229D1*
X23514Y11303D1*
X23520Y11378D1*
X23541Y11449D1*
X23576Y11515D1*
X23624Y11572D1*
X23674Y11612D1*
Y12852D1*
X23366Y13161D1*
X23185D1*
X23267Y13079D1*
X23309Y13018D1*
X23326Y12937D1*
Y11144D1*
X23709Y10762D1*
X25275Y10763D1*
X31500D1*
X31573Y10749D1*
X31642Y10704D1*
X34017Y8329D1*
X34059Y8268D1*
X34076Y8187D1*
Y6971D1*
X34239Y6973D1*
X34411D1*
Y5901D1*
X33339Y5903D1*
X33186Y5901D1*
X32339Y5903D1*
X32186Y5901D1*
X31339Y5903D1*
X31186Y5901D1*
X30339Y5903D1*
X30186Y5901D1*
X29339Y5903D1*
X29186Y5901D1*
X28339Y5903D1*
X28186Y5901D1*
X27339Y5903D1*
X27186Y5901D1*
X26339Y5903D1*
X26186Y5901D1*
X25339Y5903D1*
X25186Y5901D1*
X24339Y5903D1*
X24186Y5901D1*
X23339Y5903D1*
X23186Y5901D1*
X22339Y5903D1*
X22186Y5901D1*
X21339Y5903D1*
X21186Y5901D1*
X20339Y5903D1*
X20186Y5901D1*
X19339Y5903D1*
X19186Y5901D1*
X18339Y5903D1*
X18186Y5901D1*
X17339Y5903D1*
X17186Y5901D1*
X16339Y5903D1*
X16186Y5901D1*
X15339Y5903D1*
X15186Y5901D1*
X14339D1*
Y6973D1*
X14674D1*
Y14812D1*
X14687Y14885D1*
X14732Y14954D1*
X17107Y17329D1*
X17169Y17371D1*
X17250Y17388D1*
X20750D1*
X20823Y17374D1*
X20892Y17329D1*
X21957Y16263D1*
X22000Y16200D1*
X22019Y16191D1*
X22045Y16261D1*
X22087Y16323D1*
X22142Y16373D1*
X22208Y16409D1*
X22281Y16427D1*
X22356Y16428D1*
X22428Y16411D1*
X22495Y16377D1*
X22552Y16328D1*
X22595Y16267D1*
X22622Y16197D1*
X22632Y16119D1*
X22623Y16045D1*
X22597Y15975D1*
X22554Y15913D1*
X22498Y15863D1*
X22432Y15828D1*
X22360Y15810D1*
X22285D1*
X22212Y15828D1*
X22146Y15862D1*
X22089Y15911D1*
X22047Y15973D1*
X22020Y16043D1*
X22016Y16073D1*
Y15224D1*
X22021Y15222D1*
X22067Y15288D1*
X22145Y15366D1*
X22139Y15428D1*
X22145Y15503D1*
X22166Y15574D1*
X22201Y15640D1*
X22249Y15697D1*
X22309Y15743D1*
X22376Y15776D1*
X22449Y15794D1*
X22523Y15797D1*
X22597Y15785D1*
X22667Y15757D1*
X22729Y15716D1*
X22782Y15662D1*
X22796Y15641D1*
X22794Y16355D1*
Y17103D1*
X23707D1*
Y15521D1*
X23451D1*
Y15049D1*
X23607Y15204D1*
X23669Y15246D1*
X23750Y15263D1*
X23958D1*
Y15518D1*
X24791Y15516D1*
X24841Y15518D1*
X25539D1*
Y14606D1*
X23958D1*
Y14861D1*
X23833D1*
X23176Y14204D1*
X23104Y14154D1*
X24306D1*
X24482Y14329D1*
X24544Y14371D1*
X24625Y14388D1*
X25171D1*
X25168Y14602D1*
X26081D1*
Y14412D1*
X26152Y14411D1*
X26215Y14472D1*
X26276Y14515D1*
X26340Y14535D1*
X26600Y14538D1*
X26761D1*
X26762Y14623D1*
X27650D1*
X27649Y15237D1*
Y15521D1*
X27418Y15520D1*
X27421Y16354D1*
X27418Y16418D1*
Y17102D1*
X27674D1*
X27542Y17235D1*
X26460Y17236D1*
X26326Y17104D1*
Y15985D1*
X26354Y15966D1*
X26407Y15912D1*
X26447Y15849D1*
X26474Y15779D1*
X26486Y15687D1*
X26478Y15613D1*
X26455Y15541D1*
X26418Y15476D1*
X26368Y15420D1*
X26308Y15376D1*
X26240Y15345D1*
X26166Y15328D1*
X26092D1*
X26018Y15342D1*
X25949Y15371D1*
X25888Y15414D1*
X25837Y15469D1*
X25798Y15533D1*
X25773Y15604D1*
X25764Y15678D1*
X25770Y15753D1*
X25791Y15824D1*
X25826Y15890D1*
X25874Y15947D1*
X25924Y15987D1*
Y17187D1*
X25937Y17260D1*
X25982Y17329D1*
X26232Y17579D1*
X26294Y17621D1*
X26375Y17638D1*
X26799D1*
X26763Y17664D1*
X26712Y17719D1*
X26673Y17783D1*
X26648Y17854D1*
X26639Y17928D1*
X26645Y18003D1*
X26666Y18074D1*
X26701Y18140D1*
X26749Y18197D1*
X26809Y18243D1*
X26876Y18276D1*
X26949Y18294D1*
X27023Y18297D1*
X27097Y18285D1*
X27167Y18257D1*
X27208Y18230D1*
X27638Y18659D1*
X27639Y18921D1*
X27399Y18922D1*
Y19952D1*
X27640D1*
X27639Y20203D1*
X27200Y20201D1*
X26335D1*
X26336Y18776D1*
X22914D1*
Y20203D1*
X22750Y20201D1*
X21833D1*
X21836Y20026D1*
X20914D1*
Y20848D1*
X21836D1*
Y20672D1*
X22914Y20673D1*
Y22098D1*
X26336D1*
Y20671D1*
X26500Y20673D1*
X27641D1*
X27639Y20983D1*
X27458Y20981D1*
Y21893D1*
X27533D1*
X28516Y19952D2*
X29453D1*
Y18922D1*
X28501D1*
Y19952D1*
X28516D1*
X18281Y14893D2*
X19039D1*
Y14638D1*
X19375D1*
X19448Y14624D1*
X19517Y14579D1*
X19747Y14349D1*
X19789Y14363D1*
X18916Y15237D1*
X17582Y15236D1*
X17451Y15104D1*
Y11022D1*
X17798Y10673D1*
X17799Y12937D1*
X17812Y13010D1*
X17854Y13075D1*
X17768Y13092D1*
X17699Y13121D1*
X17638Y13164D1*
X17587Y13219D1*
X17548Y13283D1*
X17523Y13354D1*
X17514Y13428D1*
X17520Y13503D1*
X17541Y13574D1*
X17576Y13640D1*
X17624Y13697D1*
X17684Y13743D1*
X17751Y13776D1*
X17824Y13794D1*
X17898Y13797D1*
X17945Y13791D1*
X18135Y13982D1*
X17676Y13981D1*
X17457D1*
Y14893D1*
X18281D1*
X20533Y11893D2*
X20690D1*
X20732Y11954D1*
X21022Y12244D1*
X21024Y12460D1*
X20977Y12381D1*
X20767Y12170D1*
X20705Y12128D1*
X20625Y12111D1*
X19835D1*
X19575Y11853D1*
X19576Y11147D1*
X19711Y11010D1*
X19710Y11893D1*
X20533D1*
X21238D2*
X21291D1*
Y10981D1*
X21073D1*
X21076Y10863D1*
X21157Y10787D1*
X21197Y10724D1*
X21224Y10654D1*
X21236Y10562D1*
X21228Y10488D1*
X21205Y10416D1*
X21168Y10351D1*
X21118Y10295D1*
X21058Y10251D1*
X20990Y10220D1*
X20916Y10203D1*
X20842D1*
X20768Y10217D1*
X20699Y10246D1*
X20638Y10289D1*
X20587Y10344D1*
X20548Y10408D1*
X20523Y10479D1*
X20514Y10553D1*
X20520Y10628D1*
X20541Y10699D1*
X20576Y10765D1*
X20624Y10822D1*
X20674Y10862D1*
Y10982D1*
X20458Y10983D1*
X20408Y10981D1*
X19739D1*
X21209Y9512D1*
X21638Y9513D1*
X21357Y9795D1*
X21315Y9856D1*
X21299Y9937D1*
Y11950D1*
X21239Y11892D1*
X34448Y21362D2*
X34427Y21214D1*
X34386Y21070D1*
X34325Y20933D1*
X34246Y20805D1*
X34150Y20690D1*
X34039Y20590D1*
X33914Y20506D1*
X33780Y20440D1*
X33637Y20393D1*
X33490Y20367D1*
X33340Y20361D1*
X33191Y20376D1*
X33046Y20412D1*
X32906Y20468D1*
X32776Y20542D1*
X32658Y20634D1*
X32553Y20741D1*
X32465Y20862D1*
X32393Y20994D1*
X32341Y21135D1*
X32310Y21281D1*
X32298Y21431D1*
X32308Y21580D1*
X32338Y21727D1*
X32388Y21868D1*
X32458Y22001D1*
X32545Y22123D1*
X32648Y22231D1*
X32766Y22325D1*
X32895Y22401D1*
X33033Y22458D1*
X33179Y22495D1*
X33328Y22512D1*
X33477Y22508D1*
X33625Y22484D1*
X33768Y22439D1*
X33903Y22374D1*
X34029Y22292D1*
X34141Y22193D1*
X34239Y22079D1*
X34319Y21953D1*
X34382Y21816D1*
X34425Y21673D1*
X34447Y21525D1*
X34448Y21362D1*
X16448Y17362D2*
X16427Y17214D1*
X16386Y17070D1*
X16325Y16933D1*
X16246Y16805D1*
X16150Y16690D1*
X16039Y16590D1*
X15914Y16506D1*
X15780Y16440D1*
X15637Y16393D1*
X15490Y16367D1*
X15340Y16361D1*
X15191Y16376D1*
X15046Y16412D1*
X14906Y16468D1*
X14776Y16542D1*
X14658Y16634D1*
X14553Y16741D1*
X14465Y16862D1*
X14393Y16994D1*
X14341Y17135D1*
X14310Y17281D1*
X14298Y17431D1*
X14308Y17580D1*
X14338Y17727D1*
X14388Y17868D1*
X14458Y18001D1*
X14545Y18123D1*
X14648Y18231D1*
X14766Y18325D1*
X14895Y18401D1*
X15033Y18458D1*
X15179Y18495D1*
X15328Y18512D1*
X15477Y18508D1*
X15625Y18484D1*
X15768Y18439D1*
X15903Y18374D1*
X16029Y18292D1*
X16141Y18193D1*
X16239Y18079D1*
X16319Y17953D1*
X16382Y17816D1*
X16425Y17673D1*
X16447Y17525D1*
X16448Y17362D1*
X34948Y10362D2*
X34927Y10214D1*
X34886Y10070D1*
X34825Y9933D1*
X34746Y9805D1*
X34650Y9690D1*
X34539Y9590D1*
X34414Y9506D1*
X34280Y9440D1*
X34137Y9393D1*
X33990Y9367D1*
X33840Y9361D1*
X33691Y9376D1*
X33546Y9412D1*
X33406Y9468D1*
X33276Y9542D1*
X33158Y9634D1*
X33053Y9741D1*
X32965Y9862D1*
X32893Y9994D1*
X32841Y10135D1*
X32810Y10281D1*
X32798Y10431D1*
X32808Y10580D1*
X32838Y10727D1*
X32888Y10868D1*
X32958Y11001D1*
X33045Y11123D1*
X33148Y11231D1*
X33266Y11325D1*
X33395Y11401D1*
X33533Y11458D1*
X33679Y11495D1*
X33828Y11512D1*
X33977Y11508D1*
X34125Y11484D1*
X34268Y11439D1*
X34403Y11374D1*
X34529Y11292D1*
X34641Y11193D1*
X34739Y11079D1*
X34819Y10953D1*
X34882Y10816D1*
X34925Y10673D1*
X34947Y10525D1*
X34948Y10362D1*
X34468Y13297D2*
X34459Y13208D1*
X34437Y13120D1*
X34402Y13038D1*
X34354Y12961D1*
X34296Y12893D1*
X34228Y12834D1*
X34151Y12786D1*
X34069Y12751D1*
X33982Y12728D1*
X33893Y12718D1*
X33803Y12722D1*
X33715Y12740D1*
X33630Y12771D1*
X33551Y12814D1*
X33480Y12868D1*
X33417Y12933D1*
X33365Y13006D1*
X33325Y13086D1*
X33297Y13172D1*
X33283Y13261D1*
X33282Y13351D1*
X33294Y13440D1*
X33320Y13526D1*
X33359Y13607D1*
X33409Y13681D1*
X33470Y13747D1*
X33541Y13803D1*
X33619Y13848D1*
X33703Y13881D1*
X33790Y13900D1*
X33880Y13906D1*
X33970Y13898D1*
X34057Y13877D1*
X34140Y13843D1*
X34217Y13797D1*
X34287Y13740D1*
X34347Y13673D1*
X34396Y13597D1*
X34433Y13515D1*
X34457Y13429D1*
X34468Y13340D1*
Y13297D1*
Y15297D2*
X34459Y15208D1*
X34437Y15120D1*
X34402Y15038D1*
X34354Y14961D1*
X34296Y14893D1*
X34228Y14834D1*
X34151Y14786D1*
X34069Y14751D1*
X33982Y14728D1*
X33893Y14718D1*
X33803Y14722D1*
X33715Y14740D1*
X33630Y14771D1*
X33551Y14814D1*
X33480Y14868D1*
X33417Y14933D1*
X33365Y15006D1*
X33325Y15086D1*
X33297Y15172D1*
X33283Y15261D1*
X33282Y15351D1*
X33294Y15440D1*
X33320Y15526D1*
X33359Y15607D1*
X33409Y15681D1*
X33470Y15747D1*
X33541Y15803D1*
X33619Y15848D1*
X33703Y15881D1*
X33790Y15900D1*
X33880Y15906D1*
X33970Y15898D1*
X34057Y15877D1*
X34140Y15843D1*
X34217Y15797D1*
X34287Y15740D1*
X34347Y15673D1*
X34396Y15597D1*
X34433Y15515D1*
X34457Y15429D1*
X34468Y15340D1*
Y15297D1*
X32468D2*
X32459Y15208D1*
X32437Y15120D1*
X32402Y15038D1*
X32354Y14961D1*
X32296Y14893D1*
X32228Y14834D1*
X32151Y14786D1*
X32069Y14751D1*
X31982Y14728D1*
X31893Y14718D1*
X31803Y14722D1*
X31715Y14740D1*
X31630Y14771D1*
X31551Y14814D1*
X31480Y14868D1*
X31417Y14933D1*
X31365Y15006D1*
X31325Y15086D1*
X31297Y15172D1*
X31283Y15261D1*
X31282Y15351D1*
X31294Y15440D1*
X31320Y15526D1*
X31359Y15607D1*
X31409Y15681D1*
X31470Y15747D1*
X31541Y15803D1*
X31619Y15848D1*
X31703Y15881D1*
X31790Y15900D1*
X31880Y15906D1*
X31970Y15898D1*
X32057Y15877D1*
X32140Y15843D1*
X32217Y15797D1*
X32287Y15740D1*
X32347Y15673D1*
X32396Y15597D1*
X32433Y15515D1*
X32457Y15429D1*
X32468Y15340D1*
Y15297D1*
Y13297D2*
X32459Y13208D1*
X32437Y13120D1*
X32402Y13038D1*
X32354Y12961D1*
X32296Y12893D1*
X32228Y12834D1*
X32151Y12786D1*
X32069Y12751D1*
X31982Y12728D1*
X31893Y12718D1*
X31803Y12722D1*
X31715Y12740D1*
X31630Y12771D1*
X31551Y12814D1*
X31480Y12868D1*
X31417Y12933D1*
X31365Y13006D1*
X31325Y13086D1*
X31297Y13172D1*
X31283Y13261D1*
X31282Y13351D1*
X31294Y13440D1*
X31320Y13526D1*
X31359Y13607D1*
X31409Y13681D1*
X31470Y13747D1*
X31541Y13803D1*
X31619Y13848D1*
X31703Y13881D1*
X31790Y13900D1*
X31880Y13906D1*
X31970Y13898D1*
X32057Y13877D1*
X32140Y13843D1*
X32217Y13797D1*
X32287Y13740D1*
X32347Y13673D1*
X32396Y13597D1*
X32433Y13515D1*
X32457Y13429D1*
X32468Y13340D1*
Y13297D1*
X26493Y11946D2*
X26467Y11876D1*
X26424Y11815D1*
X26368Y11765D1*
X26302Y11730D1*
X26230Y11712D1*
X26155D1*
X26082Y11729D1*
X26016Y11764D1*
X25959Y11813D1*
X25917Y11874D1*
X25890Y11944D1*
X25880Y12018D1*
X25889Y12093D1*
X25915Y12163D1*
X25957Y12225D1*
X26012Y12275D1*
X26078Y12310D1*
X26151Y12329D1*
X26226Y12330D1*
X26298Y12312D1*
X26365Y12278D1*
X26422Y12229D1*
X26465Y12168D1*
X26492Y12099D1*
X26502Y12020D1*
X26493Y11946D1*
X23048Y15521D2*
X22851D1*
X22861Y15437D1*
X22853Y15363D1*
X22830Y15291D1*
X22793Y15226D1*
X22743Y15170D1*
X22683Y15126D1*
X22615Y15095D1*
X22541Y15078D1*
X22467D1*
X22430Y15083D1*
X22415Y15068D1*
X22418Y14749D1*
X22890D1*
Y14742D1*
X23049Y14896D1*
Y15522D1*
X25168Y13022D2*
Y13238D1*
X24736Y13236D1*
X24805Y13166D1*
X24898Y13172D1*
X24972Y13160D1*
X25042Y13132D1*
X25104Y13091D1*
X25157Y13037D1*
X20929Y21848D2*
X21836D1*
Y21026D1*
X20914D1*
Y21848D1*
X20929D1*
X35225Y23362D2*
X13950D1*
Y4512D1*
X35300D1*
Y23362D1*
X35225D1*
X19318Y21708D2*
D17*
Y21291D1*
X18862D2*
X19774D1*
X28623Y21893D2*
Y20981D1*
Y21437D2*
X29039D1*
X28977Y19952D2*
Y18922D1*
X28501Y19437D2*
X29453D1*
X25123Y15518D2*
Y14606D1*
Y15062D2*
X25539D1*
X25373Y12518D2*
Y11606D1*
Y12062D2*
X25789D1*
X17874Y14893D2*
Y13981D1*
X17458Y14437D2*
X17874D1*
X20126Y11893D2*
Y10981D1*
X19710Y11437D2*
X20126D1*
X14875Y21973D2*
Y21437D1*
X14339D2*
X15410D1*
X33875Y13906D2*
Y12718D1*
X33281Y13312D2*
X34468D1*
X33875Y15906D2*
Y14718D1*
X33281Y15312D2*
X34468D1*
X31875Y15906D2*
Y14718D1*
X31281Y15312D2*
X32468D1*
X31875Y13906D2*
Y12718D1*
X31281Y13312D2*
X32468D1*
X23250Y17103D2*
Y16686D1*
X22795D2*
X23706D1*
X27875Y11564D2*
Y11147D1*
X27419Y11564D2*
X28330D1*
X28500Y13312D2*
Y13002D1*
Y13312D2*
X28985D1*
X21375Y21848D2*
Y21026D1*
X20914Y21437D2*
X21835D1*
D18*
X19318Y20543D3*
Y21291D3*
D19*
X27875Y21437D3*
X28623D3*
D20*
X27875Y19437D3*
X28977D3*
D19*
X24375Y15062D3*
X25123D3*
X24625Y12062D3*
X25373D3*
X18622Y14437D3*
X17874D3*
X20875Y11437D3*
X20126D3*
D22*
X33875Y6437D3*
X32875D3*
X31875D3*
X30875D3*
X29875D3*
X28875D3*
X27875D3*
X26875D3*
X25875D3*
X24875D3*
X23875D3*
X22875D3*
X21875D3*
X20875D3*
X19875D3*
X18875D3*
X17875D3*
X16875D3*
X15875D3*
X14875D3*
Y20437D3*
Y21437D3*
D23*
X32875Y14312D3*
D24*
X33875Y13312D3*
Y15312D3*
X31875D3*
Y13312D3*
D25*
X17625Y11562D3*
X17875Y15062D3*
X18750D3*
X21250Y9687D3*
X20250Y10687D3*
X20140Y11999D3*
X22321Y16119D3*
X26191Y12020D3*
X14375Y4937D3*
X34875Y14937D3*
Y4937D3*
Y22937D3*
X14375D3*
X24375Y4937D3*
Y22937D3*
X14375Y14937D3*
D18*
X23250Y15938D3*
Y16686D3*
X25625Y13437D3*
Y14185D3*
X27875Y15937D3*
Y16685D3*
Y12312D3*
Y11564D3*
D27*
X28500Y13312D3*
Y13812D3*
Y14312D3*
X27248D3*
Y13812D3*
Y13312D3*
D29*
X20540Y14544D3*
X20536Y14346D3*
Y14149D3*
Y13953D3*
Y13756D3*
Y13559D3*
Y13362D3*
Y13165D3*
D30*
X20831Y12870D3*
X21028D3*
X21225D3*
X21421D3*
X21618D3*
X21815D3*
X22012D3*
X22210Y12874D3*
D29*
X22504Y13165D3*
Y13362D3*
Y13559D3*
Y13756D3*
Y13953D3*
Y14149D3*
Y14346D3*
Y14543D3*
D30*
X22209Y14838D3*
X22012D3*
X21815D3*
X21618D3*
X21421D3*
X21225D3*
X21028D3*
X20830Y14834D3*
D31*
X21520Y13854D3*
D32*
X21375Y21437D3*
Y20437D3*
Y19437D3*
D33*
X24625Y20437D3*
D34*
X21500Y13812D3*
M02*
