G04 DipTrace 2.3.1.0*
%INTopPaste.gbr*%
%MOIN*%
%ADD44R,0.3021X0.2921*%
%ADD46R,0.0521X0.0421*%
%ADD48R,0.1142X0.1142*%
%ADD50O,0.0001X0.0301*%
%ADD52O,0.0301X0.0001*%
%ADD54R,0.0571X0.022*%
%ADD62R,0.0551X0.063*%
%ADD64R,0.0433X0.0512*%
%ADD66R,0.0512X0.0433*%
%FSLAX44Y44*%
G04*
G70*
G90*
G75*
G01*
%LNTopPaste*%
%LPD*%
D66*
X19318Y20543D3*
Y21291D3*
D64*
X27875Y21437D3*
X28623D3*
D62*
X27875Y19437D3*
X28977D3*
D64*
X24375Y15062D3*
X25123D3*
X24625Y12062D3*
X25373D3*
X18622Y14437D3*
X17874D3*
X20875Y11437D3*
X20126D3*
D66*
X23250Y15938D3*
Y16686D3*
X25625Y13437D3*
Y14185D3*
X27875Y15937D3*
Y16685D3*
Y12312D3*
Y11564D3*
D54*
X28500Y13312D3*
Y13812D3*
Y14312D3*
X27248D3*
Y13812D3*
Y13312D3*
D52*
X20540Y14544D3*
X20536Y14346D3*
Y14149D3*
Y13953D3*
Y13756D3*
Y13559D3*
Y13362D3*
Y13165D3*
D50*
X20831Y12870D3*
X21028D3*
X21225D3*
X21421D3*
X21618D3*
X21815D3*
X22012D3*
X22210Y12874D3*
D52*
X22504Y13165D3*
Y13362D3*
Y13559D3*
Y13756D3*
Y13953D3*
Y14149D3*
Y14346D3*
Y14543D3*
D50*
X22209Y14838D3*
X22012D3*
X21815D3*
X21618D3*
X21421D3*
X21225D3*
X21028D3*
X20830Y14834D3*
D48*
X21520Y13854D3*
D46*
X21375Y21437D3*
Y20437D3*
Y19437D3*
D44*
X24625Y20437D3*
M02*
